<svg width="375" height="812" viewBox="0 0 375 812" fill="none" xmlns="http://www.w3.org/2000/svg" xmlns:xlink="http://www.w3.org/1999/xlink">
<g clip-path="url(#clip0_231_2524)">


<path d="M152 378C158.338 378 165 382.738 165 391.07C165 397.954 155.39 408.702 152.695 411.581C152.313 411.989 151.687 411.989 151.305 411.581C148.61 408.702 139 397.954 139 391.07C139 382.738 145.663 378 152 378ZM152.002 386.184C149.309 386.184 147.126 388.378 147.126 391.086C147.126 393.793 149.309 395.988 152.002 395.988C154.695 395.988 156.878 393.793 156.878 391.086C156.878 388.378 154.695 386.184 152.002 386.184Z" fill="#FE5C1C"></path>
<path d="M114 327C120.338 327 127 331.738 127 340.07C127 346.954 117.39 357.702 114.695 360.581C114.313 360.989 113.687 360.989 113.305 360.581C110.61 357.702 101 346.954 101 340.07C101 331.738 107.663 327 114 327ZM114.002 335.184C111.309 335.184 109.126 337.378 109.126 340.086C109.126 342.793 111.309 344.988 114.002 344.988C116.695 344.988 118.878 342.793 118.878 340.086C118.878 337.378 116.695 335.184 114.002 335.184Z" fill="#FE5C1C"></path>
<path d="M160 235C166.338 235 173 239.738 173 248.07C173 254.954 163.39 265.702 160.695 268.581C160.313 268.989 159.687 268.989 159.305 268.581C156.61 265.702 147 254.954 147 248.07C147 239.738 153.663 235 160 235ZM160.002 243.184C157.309 243.184 155.126 245.378 155.126 248.086C155.126 250.793 157.309 252.988 160.002 252.988C162.695 252.988 164.878 250.793 164.878 248.086C164.878 245.378 162.695 243.184 160.002 243.184Z" fill="#FE5C1C"></path>
<path d="M289 265C295.338 265 302 269.738 302 278.07C302 284.954 292.39 295.702 289.695 298.581C289.313 298.989 288.687 298.989 288.305 298.581C285.61 295.702 276 284.954 276 278.07C276 269.738 282.663 265 289 265ZM289.002 273.184C286.309 273.184 284.126 275.378 284.126 278.086C284.126 280.793 286.309 282.988 289.002 282.988C291.695 282.988 293.878 280.793 293.878 278.086C293.878 275.378 291.695 273.184 289.002 273.184Z" fill="#FE5C1C"></path>
<path d="M252 327C258.338 327 265 331.738 265 340.07C265 346.954 255.39 357.702 252.695 360.581C252.313 360.989 251.687 360.989 251.305 360.581C248.61 357.702 239 346.954 239 340.07C239 331.738 245.663 327 252 327ZM252.002 335.184C249.309 335.184 247.126 337.378 247.126 340.086C247.126 342.793 249.309 344.988 252.002 344.988C254.695 344.988 256.878 342.793 256.878 340.086C256.878 337.378 254.695 335.184 252.002 335.184Z" fill="#FE5C1C"></path>
<path d="M306 415C312.338 415 319 419.738 319 428.07C319 434.954 309.39 445.702 306.695 448.581C306.313 448.989 305.687 448.989 305.305 448.581C302.61 445.702 293 434.954 293 428.07C293 419.738 299.663 415 306 415ZM306.002 423.184C303.309 423.184 301.126 425.378 301.126 428.086C301.126 430.793 303.309 432.988 306.002 432.988C308.695 432.988 310.878 430.793 310.878 428.086C310.878 425.378 308.695 423.184 306.002 423.184Z" fill="#FE5C1C"></path>
<path d="M188 482C194.338 482 201 486.738 201 495.07C201 501.954 191.39 512.702 188.695 515.581C188.313 515.989 187.687 515.989 187.305 515.581C184.61 512.702 175 501.954 175 495.07C175 486.738 181.663 482 188 482ZM188.002 490.184C185.309 490.184 183.126 492.378 183.126 495.086C183.126 497.793 185.309 499.988 188.002 499.988C190.695 499.988 192.878 497.793 192.878 495.086C192.878 492.378 190.695 490.184 188.002 490.184Z" fill="#FE5C1C"></path>
<path d="M143 585C149.338 585 156 589.738 156 598.07C156 604.954 146.39 615.702 143.695 618.581C143.313 618.989 142.687 618.989 142.305 618.581C139.61 615.702 130 604.954 130 598.07C130 589.738 136.663 585 143 585ZM143.002 593.184C140.309 593.184 138.126 595.378 138.126 598.086C138.126 600.793 140.309 602.988 143.002 602.988C145.695 602.988 147.878 600.793 147.878 598.086C147.878 595.378 145.695 593.184 143.002 593.184Z" fill="#FE5C1C"></path>
<path d="M82 551C88.3375 551 94.9999 555.738 95 564.07C95 570.954 85.3902 581.702 82.6953 584.581C82.3131 584.989 81.6869 584.989 81.3047 584.581C78.6098 581.702 69 570.954 69 564.07C69.0001 555.738 75.6625 551 82 551ZM82.002 559.184C79.3089 559.184 77.126 561.378 77.126 564.086C77.1261 566.793 79.309 568.988 82.002 568.988C84.6949 568.988 86.8778 566.793 86.8779 564.086C86.8779 561.378 84.695 559.184 82.002 559.184Z" fill="#FE5C1C"></path>
<path d="M89 458C95.3375 458 102 462.738 102 471.07C102 477.954 92.3902 488.702 89.6953 491.581C89.3131 491.989 88.6869 491.989 88.3047 491.581C85.6098 488.702 76 477.954 76 471.07C76.0001 462.738 82.6625 458 89 458ZM89.002 466.184C86.3089 466.184 84.126 468.378 84.126 471.086C84.1261 473.793 86.309 475.988 89.002 475.988C91.6949 475.988 93.8778 473.793 93.8779 471.086C93.8779 468.378 91.695 466.184 89.002 466.184Z" fill="#FE5C1C"></path>
<rect x="88.3379" y="455" width="20" height="20" rx="10" fill="#2F33F9"></rect>
<path d="M99.6079 463.582C100.387 463.582 101.019 464.213 101.019 464.993V468.098H100.172V470.215H96.5024V467.675H95.6558V464.993C95.6559 464.213 96.2874 463.582 97.0669 463.582H99.6079ZM94.9653 463.582C95.2768 463.582 95.5298 463.834 95.5298 464.146C95.5295 464.457 95.2759 464.71 94.9644 464.71H94.5415C94.3855 464.711 94.2585 464.837 94.2583 464.993V466.546H95.105V468.24H95.811C96.1227 468.24 96.3754 468.493 96.3755 468.804C96.3752 469.116 96.1226 469.369 95.811 469.369H93.9761V467.675H93.1294V464.993C93.1296 464.213 93.762 463.582 94.5415 463.582H94.9653ZM102.134 463.582C102.914 463.582 103.545 464.213 103.545 464.993V467.675H102.699V469.369H100.864C100.552 469.368 100.3 469.116 100.299 468.804C100.299 468.493 100.552 468.24 100.864 468.24H101.57V466.546H102.417V464.993C102.416 464.837 102.29 464.71 102.134 464.71H101.71C101.399 464.71 101.146 464.457 101.146 464.146C101.146 463.834 101.399 463.582 101.71 463.582H102.134ZM97.0669 464.71C96.9109 464.711 96.7848 464.837 96.7847 464.993V466.546H97.6313V469.086H99.0435V466.969H99.8901V464.993C99.89 464.837 99.764 464.711 99.6079 464.71H97.0669ZM94.9595 460.632C95.739 460.632 96.3713 461.264 96.3716 462.043C96.3713 462.823 95.739 463.455 94.9595 463.456C94.1801 463.455 93.5486 462.823 93.5483 462.043C93.5486 461.264 94.1801 460.633 94.9595 460.632ZM101.716 460.632C102.496 460.632 103.128 461.264 103.128 462.043C103.128 462.823 102.496 463.455 101.716 463.456C100.937 463.455 100.305 462.823 100.305 462.043C100.305 461.264 100.937 460.633 101.716 460.632ZM98.3374 459.785C99.3509 459.785 100.172 460.606 100.172 461.62C100.172 462.633 99.351 463.455 98.3374 463.455C97.324 463.454 96.5024 462.633 96.5024 461.62C96.5027 460.606 97.3241 459.785 98.3374 459.785ZM94.9595 461.761C94.8035 461.761 94.6775 461.888 94.6772 462.043C94.6775 462.199 94.8035 462.326 94.9595 462.327C95.1155 462.326 95.2424 462.199 95.2427 462.043C95.2424 461.887 95.1155 461.761 94.9595 461.761ZM101.716 461.761C101.56 461.761 101.434 461.888 101.434 462.043C101.434 462.199 101.56 462.326 101.716 462.327C101.872 462.327 101.999 462.199 102 462.043C101.999 461.887 101.872 461.761 101.716 461.761ZM98.3374 460.914C97.9476 460.914 97.6316 461.23 97.6313 461.62C97.6313 462.01 97.9474 462.325 98.3374 462.326C98.7275 462.326 99.0435 462.01 99.0435 461.62C99.0432 461.23 98.7274 460.914 98.3374 460.914Z" fill="white"></path>
<path d="M282 479C288.338 479 295 483.738 295 492.07C295 498.954 285.39 509.702 282.695 512.581C282.313 512.989 281.687 512.989 281.305 512.581C278.61 509.702 269 498.954 269 492.07C269 483.738 275.663 479 282 479ZM282.002 487.184C279.309 487.184 277.126 489.378 277.126 492.086C277.126 494.793 279.309 496.988 282.002 496.988C284.695 496.988 286.878 494.793 286.878 492.086C286.878 489.378 284.695 487.184 282.002 487.184Z" fill="#FE5C1C"></path>
<rect x="281.338" y="476" width="20" height="20" rx="10" fill="#2F33F9"></rect>
<path d="M292.608 484.582C293.387 484.582 294.019 485.213 294.019 485.993V489.098H293.172V491.215H289.502V488.675H288.656V485.993C288.656 485.213 289.287 484.582 290.067 484.582H292.608ZM287.965 484.582C288.277 484.582 288.53 484.834 288.53 485.146C288.53 485.457 288.276 485.71 287.964 485.71H287.542C287.386 485.711 287.258 485.837 287.258 485.993V487.546H288.105V489.24H288.811C289.123 489.24 289.375 489.493 289.375 489.804C289.375 490.116 289.123 490.369 288.811 490.369H286.976V488.675H286.129V485.993C286.13 485.213 286.762 484.582 287.542 484.582H287.965ZM295.134 484.582C295.914 484.582 296.545 485.213 296.545 485.993V488.675H295.699V490.369H293.864C293.552 490.368 293.3 490.116 293.299 489.804C293.299 489.493 293.552 489.24 293.864 489.24H294.57V487.546H295.417V485.993C295.416 485.837 295.29 485.71 295.134 485.71H294.71C294.399 485.71 294.146 485.457 294.146 485.146C294.146 484.834 294.399 484.582 294.71 484.582H295.134ZM290.067 485.71C289.911 485.711 289.785 485.837 289.785 485.993V487.546H290.631V490.086H292.043V487.969H292.89V485.993C292.89 485.837 292.764 485.711 292.608 485.71H290.067ZM287.959 481.632C288.739 481.632 289.371 482.264 289.372 483.043C289.371 483.823 288.739 484.455 287.959 484.456C287.18 484.455 286.549 483.823 286.548 483.043C286.549 482.264 287.18 481.633 287.959 481.632ZM294.716 481.632C295.496 481.632 296.128 482.264 296.128 483.043C296.128 483.823 295.496 484.455 294.716 484.456C293.937 484.455 293.305 483.823 293.305 483.043C293.305 482.264 293.937 481.633 294.716 481.632ZM291.337 480.785C292.351 480.785 293.172 481.606 293.172 482.62C293.172 483.633 292.351 484.455 291.337 484.455C290.324 484.454 289.502 483.633 289.502 482.62C289.503 481.606 290.324 480.785 291.337 480.785ZM287.959 482.761C287.804 482.761 287.678 482.888 287.677 483.043C287.678 483.199 287.804 483.326 287.959 483.327C288.115 483.326 288.242 483.199 288.243 483.043C288.242 482.887 288.115 482.761 287.959 482.761ZM294.716 482.761C294.56 482.761 294.434 482.888 294.434 483.043C294.434 483.199 294.56 483.326 294.716 483.327C294.872 483.327 294.999 483.199 295 483.043C294.999 482.887 294.872 482.761 294.716 482.761ZM291.337 481.914C290.948 481.914 290.632 482.23 290.631 482.62C290.631 483.01 290.947 483.325 291.337 483.326C291.728 483.326 292.043 483.01 292.043 482.62C292.043 482.23 291.727 481.914 291.337 481.914Z" fill="white"></path>
<path d="M193 568C199.338 568 206 572.738 206 581.07C206 587.954 196.39 598.702 193.695 601.581C193.313 601.989 192.687 601.989 192.305 601.581C189.61 598.702 180 587.954 180 581.07C180 572.738 186.663 568 193 568ZM193.002 576.184C190.309 576.184 188.126 578.378 188.126 581.086C188.126 583.793 190.309 585.988 193.002 585.988C195.695 585.988 197.878 583.793 197.878 581.086C197.878 578.378 195.695 576.184 193.002 576.184Z" fill="#FE5C1C"></path>
<rect x="192.338" y="565" width="20" height="20" rx="10" fill="#2F33F9"></rect>
<path d="M203.608 573.582C204.387 573.582 205.019 574.213 205.019 574.993V578.098H204.172V580.215H200.502V577.675H199.656V574.993C199.656 574.213 200.287 573.582 201.067 573.582H203.608ZM198.965 573.582C199.277 573.582 199.53 573.834 199.53 574.146C199.53 574.457 199.276 574.71 198.964 574.71H198.542C198.386 574.711 198.258 574.837 198.258 574.993V576.546H199.105V578.24H199.811C200.123 578.24 200.375 578.493 200.375 578.804C200.375 579.116 200.123 579.369 199.811 579.369H197.976V577.675H197.129V574.993C197.13 574.213 197.762 573.582 198.542 573.582H198.965ZM206.134 573.582C206.914 573.582 207.545 574.213 207.545 574.993V577.675H206.699V579.369H204.864C204.552 579.368 204.3 579.116 204.299 578.804C204.299 578.493 204.552 578.24 204.864 578.24H205.57V576.546H206.417V574.993C206.416 574.837 206.29 574.71 206.134 574.71H205.71C205.399 574.71 205.146 574.457 205.146 574.146C205.146 573.834 205.399 573.582 205.71 573.582H206.134ZM201.067 574.71C200.911 574.711 200.785 574.837 200.785 574.993V576.546H201.631V579.086H203.043V576.969H203.89V574.993C203.89 574.837 203.764 574.711 203.608 574.71H201.067ZM198.959 570.632C199.739 570.632 200.371 571.264 200.372 572.043C200.371 572.823 199.739 573.455 198.959 573.456C198.18 573.455 197.549 572.823 197.548 572.043C197.549 571.264 198.18 570.633 198.959 570.632ZM205.716 570.632C206.496 570.632 207.128 571.264 207.128 572.043C207.128 572.823 206.496 573.455 205.716 573.456C204.937 573.455 204.305 572.823 204.305 572.043C204.305 571.264 204.937 570.633 205.716 570.632ZM202.337 569.785C203.351 569.785 204.172 570.606 204.172 571.62C204.172 572.633 203.351 573.455 202.337 573.455C201.324 573.454 200.502 572.633 200.502 571.62C200.503 570.606 201.324 569.785 202.337 569.785ZM198.959 571.761C198.804 571.761 198.678 571.888 198.677 572.043C198.678 572.199 198.804 572.326 198.959 572.327C199.115 572.326 199.242 572.199 199.243 572.043C199.242 571.887 199.115 571.761 198.959 571.761ZM205.716 571.761C205.56 571.761 205.434 571.888 205.434 572.043C205.434 572.199 205.56 572.326 205.716 572.327C205.872 572.327 205.999 572.199 206 572.043C205.999 571.887 205.872 571.761 205.716 571.761ZM202.337 570.914C201.948 570.914 201.632 571.23 201.631 571.62C201.631 572.01 201.947 572.325 202.337 572.326C202.728 572.326 203.043 572.01 203.043 571.62C203.043 571.23 202.727 570.914 202.337 570.914Z" fill="white"></path>
<path d="M50.5166 26.7231C51.1585 26.7231 51.7673 26.8421 52.3428 27.0801C52.9183 27.3125 53.4274 27.6777 53.8701 28.1758C54.3184 28.6683 54.6698 29.3019 54.9243 30.0767C55.1789 30.8459 55.3062 31.7728 55.3062 32.8574V32.874C55.3062 34.2188 55.1125 35.3698 54.7251 36.3271C54.3377 37.2845 53.7816 38.0205 53.0566 38.5352C52.3372 39.0443 51.4767 39.2988 50.4751 39.2988C49.7391 39.2988 49.075 39.166 48.4829 38.9004C47.8963 38.6292 47.4093 38.2585 47.022 37.7881C46.6401 37.3122 46.3828 36.7699 46.25 36.1611L46.2334 36.0698H48.3335L48.3667 36.1528C48.4718 36.4295 48.6213 36.673 48.8149 36.8833C49.0142 37.0936 49.2521 37.2568 49.5288 37.373C49.811 37.4837 50.1265 37.5391 50.4751 37.5391C51.106 37.5391 51.6206 37.3537 52.019 36.9829C52.423 36.6066 52.7246 36.1058 52.9238 35.4805C53.1286 34.8496 53.2448 34.1523 53.2725 33.3887C53.278 33.3057 53.2808 33.2254 53.2808 33.1479C53.2808 33.0649 53.2808 32.9847 53.2808 32.9072L52.9072 30.9067C52.9072 30.453 52.8021 30.0407 52.5918 29.6699C52.3815 29.2992 52.0965 29.0059 51.7368 28.79C51.3826 28.5742 50.9814 28.4663 50.5332 28.4663C50.1016 28.4663 49.7059 28.5715 49.3462 28.7817C48.9865 28.992 48.6987 29.2798 48.4829 29.645C48.2671 30.0047 48.1592 30.4087 48.1592 30.8569V30.8735C48.1592 31.3384 48.2616 31.7507 48.4663 32.1104C48.6711 32.4645 48.9505 32.744 49.3047 32.9487C49.6589 33.1535 50.0628 33.2559 50.5166 33.2559C50.9704 33.2559 51.3771 33.1562 51.7368 32.957C52.0965 32.7578 52.3815 32.4811 52.5918 32.127C52.8021 31.7728 52.9072 31.3716 52.9072 30.9233V30.9067H53.4053V33.1147H53.1147C52.9709 33.4302 52.7578 33.7235 52.4756 33.9946C52.1934 34.2658 51.8447 34.4844 51.4297 34.6504C51.0202 34.8164 50.5387 34.8994 49.9854 34.8994C49.2217 34.8994 48.5465 34.7279 47.96 34.3848C47.3734 34.0417 46.9113 33.5713 46.5737 32.9736C46.2417 32.376 46.0757 31.7008 46.0757 30.9482V30.9316C46.0757 30.1182 46.2638 29.396 46.6401 28.7651C47.022 28.1287 47.5477 27.6307 48.2173 27.271C48.8924 26.9058 49.6589 26.7231 50.5166 26.7231ZM59.0747 37.3896C58.6984 37.3896 58.383 37.2651 58.1284 37.0161C57.8794 36.7616 57.7549 36.4517 57.7549 36.0864C57.7549 35.7157 57.8794 35.4058 58.1284 35.1567C58.383 34.9022 58.6984 34.7749 59.0747 34.7749C59.4565 34.7749 59.772 34.9022 60.021 35.1567C60.27 35.4058 60.3945 35.7157 60.3945 36.0864C60.3945 36.4517 60.27 36.7616 60.021 37.0161C59.772 37.2651 59.4565 37.3896 59.0747 37.3896ZM59.0747 31.2305C58.6984 31.2305 58.383 31.106 58.1284 30.8569C57.8794 30.6024 57.7549 30.2925 57.7549 29.9272C57.7549 29.5565 57.8794 29.2466 58.1284 28.9976C58.383 28.743 58.6984 28.6157 59.0747 28.6157C59.4565 28.6157 59.772 28.743 60.021 28.9976C60.27 29.2466 60.3945 29.5565 60.3945 29.9272C60.3945 30.2925 60.27 30.6024 60.021 30.8569C59.772 31.106 59.4565 31.2305 59.0747 31.2305ZM68.6538 39V36.7007H62.7935V34.9492C63.1089 34.4124 63.4243 33.8729 63.7397 33.3306C64.0607 32.7882 64.3844 32.2487 64.7109 31.7119C65.043 31.1696 65.3722 30.6356 65.6987 30.1099C66.0308 29.5786 66.36 29.0557 66.6865 28.541C67.0186 28.0208 67.3506 27.5145 67.6826 27.022H70.6958V34.9326H72.3145V36.7007H70.6958V39H68.6538ZM64.7856 34.9824H68.687V28.7319H68.5625C68.319 29.1082 68.0672 29.4956 67.8071 29.894C67.5526 30.2925 67.2952 30.6992 67.0352 31.1143C66.7751 31.5293 66.5177 31.9471 66.2632 32.3677C66.0086 32.7827 65.7568 33.2005 65.5078 33.6211C65.2588 34.0361 65.0181 34.4484 64.7856 34.8579V34.9824ZM77.27 39V29.1304H77.1206L74.1406 31.2305V29.2217L77.27 27.022H79.4033V39H77.27Z" fill="black"></path>
<path fill-rule="evenodd" clip-rule="evenodd" d="M292.115 27.533C292.115 26.9 291.637 26.3868 291.048 26.3868H289.982C289.393 26.3868 288.915 26.9 288.915 27.533V37.467C288.915 38.1 289.393 38.6132 289.982 38.6132H291.048C291.637 38.6132 292.115 38.1 292.115 37.467V27.533ZM284.681 28.8321H285.748C286.337 28.8321 286.814 29.3576 286.814 30.0058V37.4395C286.814 38.0877 286.337 38.6132 285.748 38.6132H284.681C284.092 38.6132 283.614 38.0877 283.614 37.4395V30.0058C283.614 29.3576 284.092 28.8321 284.681 28.8321ZM280.349 31.4811H279.282C278.693 31.4811 278.216 32.0133 278.216 32.6698V37.4245C278.216 38.081 278.693 38.6132 279.282 38.6132H280.349C280.938 38.6132 281.416 38.081 281.416 37.4245V32.6698C281.416 32.0133 280.938 31.4811 280.349 31.4811ZM275.048 33.9264H273.982C273.393 33.9264 272.915 34.451 272.915 35.0981V37.4415C272.915 38.0886 273.393 38.6132 273.982 38.6132H275.048C275.637 38.6132 276.115 38.0886 276.115 37.4415V35.0981C276.115 34.451 275.637 33.9264 275.048 33.9264Z" fill="black"></path>
<path fill-rule="evenodd" clip-rule="evenodd" d="M307.687 28.8021C310.174 28.8022 312.566 29.7243 314.368 31.3778C314.504 31.5054 314.721 31.5038 314.855 31.3742L316.152 30.1107C316.22 30.045 316.257 29.9559 316.257 29.8632C316.256 29.7705 316.218 29.6819 316.149 29.6169C311.418 25.2422 303.954 25.2422 299.223 29.6169C299.155 29.6818 299.116 29.7704 299.115 29.8631C299.115 29.9558 299.152 30.0449 299.22 30.1107L300.518 31.3742C300.651 31.504 300.869 31.5056 301.004 31.3778C302.807 29.7242 305.199 28.8021 307.687 28.8021ZM307.683 33.0224C309.041 33.0223 310.349 33.5341 311.356 34.4582C311.492 34.5893 311.706 34.5865 311.839 34.4518L313.126 33.1325C313.194 33.0633 313.231 32.9694 313.23 32.8718C313.229 32.7743 313.19 32.6812 313.121 32.6134C310.057 29.7226 305.312 29.7226 302.248 32.6134C302.179 32.6812 302.14 32.7743 302.139 32.8719C302.138 32.9695 302.176 33.0634 302.243 33.1325L303.53 34.4518C303.663 34.5865 303.877 34.5893 304.013 34.4582C305.019 33.5347 306.327 33.023 307.683 33.0224ZM310.208 35.816C310.21 35.9213 310.172 36.0229 310.105 36.0967L307.929 38.5514C307.865 38.6236 307.778 38.6642 307.687 38.6642C307.596 38.6642 307.509 38.6236 307.445 38.5514L305.268 36.0967C305.201 36.0228 305.164 35.9212 305.166 35.8159C305.168 35.7105 305.209 35.6108 305.279 35.5401C306.669 34.2262 308.705 34.2262 310.095 35.5401C310.165 35.6108 310.206 35.7106 310.208 35.816Z" fill="black"></path>
<rect opacity="0.35" x="323.757" y="26.5" width="24" height="12" rx="3.8" stroke="black"></rect>
<path opacity="0.4" d="M349.257 30.7811V34.8566C350.062 34.5114 350.585 33.7085 350.585 32.8189C350.585 31.9293 350.062 31.1263 349.257 30.7811Z" fill="black"></path>
<rect x="325.257" y="28" width="21" height="9" rx="2.5" fill="black"></rect>
<g data-figma-bg-blur-radius="4">
<rect x="305" y="443" width="62" height="52" rx="26" fill="#F1F2F4" fill-opacity="0.92"></rect>
<path d="M336.001 458C336.552 458 336.998 458.446 336.998 458.997V461.086C340.606 461.537 343.463 464.395 343.913 468.003H346.003C346.554 468.003 347 468.449 347 469C347 469.551 346.554 469.997 346.003 469.997H343.913C343.463 473.605 340.606 476.462 336.998 476.913V479.002C336.998 479.553 336.552 480 336.001 480C335.45 480 335.004 479.553 335.004 479.002V476.913C331.395 476.464 328.536 473.606 328.086 469.997H325.997C325.446 469.997 325 469.551 325 469C325 468.449 325.446 468.003 325.997 468.003H328.086C328.536 464.394 331.395 461.535 335.004 461.086V458.997C335.004 458.446 335.45 458 336.001 458ZM335.999 463.017C332.695 463.017 330.016 465.696 330.016 469C330.016 472.304 332.695 474.983 335.999 474.983C339.304 474.983 341.982 472.305 341.982 469C341.982 465.696 339.304 463.017 335.999 463.017ZM336 465.011C338.203 465.011 339.988 466.797 339.988 469C339.988 471.203 338.203 472.988 336 472.988C333.797 472.988 332.011 471.203 332.011 469C332.011 466.797 333.797 465.011 336 465.011ZM336 467.005C334.898 467.005 334.005 467.898 334.005 469C334.005 470.101 334.899 470.994 336 470.994C337.101 470.994 337.994 470.101 337.994 469C337.994 467.899 337.101 467.005 336 467.005Z" fill="#323743"></path>
<path d="M336.001 458C336.552 458 336.998 458.446 336.998 458.997V461.086C340.606 461.537 343.463 464.395 343.913 468.003H346.003C346.554 468.003 347 468.449 347 469C347 469.551 346.554 469.997 346.003 469.997H343.913C343.463 473.605 340.606 476.462 336.998 476.913V479.002C336.998 479.553 336.552 480 336.001 480C335.45 480 335.004 479.553 335.004 479.002V476.913C331.395 476.464 328.536 473.606 328.086 469.997H325.997C325.446 469.997 325 469.551 325 469C325 468.449 325.446 468.003 325.997 468.003H328.086C328.536 464.394 331.395 461.535 335.004 461.086V458.997C335.004 458.446 335.45 458 336.001 458ZM335.999 463.017C332.695 463.017 330.016 465.696 330.016 469C330.016 472.304 332.695 474.983 335.999 474.983C339.304 474.983 341.982 472.305 341.982 469C341.982 465.696 339.304 463.017 335.999 463.017ZM336 465.011C338.203 465.011 339.988 466.797 339.988 469C339.988 471.203 338.203 472.988 336 472.988C333.797 472.988 332.011 471.203 332.011 469C332.011 466.797 333.797 465.011 336 465.011ZM336 467.005C334.898 467.005 334.005 467.898 334.005 469C334.005 470.101 334.899 470.994 336 470.994C337.101 470.994 337.994 470.101 337.994 469C337.994 467.899 337.101 467.005 336 467.005Z" fill="black" fill-opacity="0.2"></path>
<path d="M336.001 458C336.552 458 336.998 458.446 336.998 458.997V461.086C340.606 461.537 343.463 464.395 343.913 468.003H346.003C346.554 468.003 347 468.449 347 469C347 469.551 346.554 469.997 346.003 469.997H343.913C343.463 473.605 340.606 476.462 336.998 476.913V479.002C336.998 479.553 336.552 480 336.001 480C335.45 480 335.004 479.553 335.004 479.002V476.913C331.395 476.464 328.536 473.606 328.086 469.997H325.997C325.446 469.997 325 469.551 325 469C325 468.449 325.446 468.003 325.997 468.003H328.086C328.536 464.394 331.395 461.535 335.004 461.086V458.997C335.004 458.446 335.45 458 336.001 458ZM335.999 463.017C332.695 463.017 330.016 465.696 330.016 469C330.016 472.304 332.695 474.983 335.999 474.983C339.304 474.983 341.982 472.305 341.982 469C341.982 465.696 339.304 463.017 335.999 463.017ZM336 465.011C338.203 465.011 339.988 466.797 339.988 469C339.988 471.203 338.203 472.988 336 472.988C333.797 472.988 332.011 471.203 332.011 469C332.011 466.797 333.797 465.011 336 465.011ZM336 467.005C334.898 467.005 334.005 467.898 334.005 469C334.005 470.101 334.899 470.994 336 470.994C337.101 470.994 337.994 470.101 337.994 469C337.994 467.899 337.101 467.005 336 467.005Z" fill="black" fill-opacity="0.2"></path>
<path d="M336.001 458C336.552 458 336.998 458.446 336.998 458.997V461.086C340.606 461.537 343.463 464.395 343.913 468.003H346.003C346.554 468.003 347 468.449 347 469C347 469.551 346.554 469.997 346.003 469.997H343.913C343.463 473.605 340.606 476.462 336.998 476.913V479.002C336.998 479.553 336.552 480 336.001 480C335.45 480 335.004 479.553 335.004 479.002V476.913C331.395 476.464 328.536 473.606 328.086 469.997H325.997C325.446 469.997 325 469.551 325 469C325 468.449 325.446 468.003 325.997 468.003H328.086C328.536 464.394 331.395 461.535 335.004 461.086V458.997C335.004 458.446 335.45 458 336.001 458ZM335.999 463.017C332.695 463.017 330.016 465.696 330.016 469C330.016 472.304 332.695 474.983 335.999 474.983C339.304 474.983 341.982 472.305 341.982 469C341.982 465.696 339.304 463.017 335.999 463.017ZM336 465.011C338.203 465.011 339.988 466.797 339.988 469C339.988 471.203 338.203 472.988 336 472.988C333.797 472.988 332.011 471.203 332.011 469C332.011 466.797 333.797 465.011 336 465.011ZM336 467.005C334.898 467.005 334.005 467.898 334.005 469C334.005 470.101 334.899 470.994 336 470.994C337.101 470.994 337.994 470.101 337.994 469C337.994 467.899 337.101 467.005 336 467.005Z" fill="black" fill-opacity="0.2"></path>
</g>
<g data-figma-bg-blur-radius="4">
<rect x="313" y="317" width="48" height="48" rx="18" fill="#F1F2F4" fill-opacity="0.92"></rect>
<path d="M337.001 331C337.624 331 338.13 331.505 338.13 332.129V339.841H345.867C346.491 339.841 346.996 340.346 346.996 340.97C346.996 341.593 346.491 342.099 345.867 342.099H338.13V349.808C338.13 350.431 337.624 350.937 337.001 350.937C336.378 350.937 335.872 350.431 335.872 349.808V342.099H328.132C327.509 342.098 327.003 341.593 327.003 340.97C327.003 340.346 327.509 339.841 328.132 339.841H335.872V332.129C335.872 331.505 336.378 331 337.001 331Z" fill="#323743"></path>
<path d="M337.001 331C337.624 331 338.13 331.505 338.13 332.129V339.841H345.867C346.491 339.841 346.996 340.346 346.996 340.97C346.996 341.593 346.491 342.099 345.867 342.099H338.13V349.808C338.13 350.431 337.624 350.937 337.001 350.937C336.378 350.937 335.872 350.431 335.872 349.808V342.099H328.132C327.509 342.098 327.003 341.593 327.003 340.97C327.003 340.346 327.509 339.841 328.132 339.841H335.872V332.129C335.872 331.505 336.378 331 337.001 331Z" fill="black" fill-opacity="0.2"></path>
<path d="M337.001 331C337.624 331 338.13 331.505 338.13 332.129V339.841H345.867C346.491 339.841 346.996 340.346 346.996 340.97C346.996 341.593 346.491 342.099 345.867 342.099H338.13V349.808C338.13 350.431 337.624 350.937 337.001 350.937C336.378 350.937 335.872 350.431 335.872 349.808V342.099H328.132C327.509 342.098 327.003 341.593 327.003 340.97C327.003 340.346 327.509 339.841 328.132 339.841H335.872V332.129C335.872 331.505 336.378 331 337.001 331Z" fill="black" fill-opacity="0.2"></path>
<path d="M337.001 331C337.624 331 338.13 331.505 338.13 332.129V339.841H345.867C346.491 339.841 346.996 340.346 346.996 340.97C346.996 341.593 346.491 342.099 345.867 342.099H338.13V349.808C338.13 350.431 337.624 350.937 337.001 350.937C336.378 350.937 335.872 350.431 335.872 349.808V342.099H328.132C327.509 342.098 327.003 341.593 327.003 340.97C327.003 340.346 327.509 339.841 328.132 339.841H335.872V332.129C335.872 331.505 336.378 331 337.001 331Z" fill="black" fill-opacity="0.2"></path>
</g>
<g data-figma-bg-blur-radius="4">
<rect x="313" y="375" width="48" height="48" rx="18" fill="#F1F2F4" fill-opacity="0.92"></rect>
<path d="M345.899 398C346.523 398 347.028 398.505 347.028 399.129C347.028 399.752 346.523 400.258 345.899 400.258H328.129C327.506 400.258 327 399.752 327 399.129C327 398.506 327.506 398 328.129 398H345.899Z" fill="#323743"></path>
<path d="M345.899 398C346.523 398 347.028 398.505 347.028 399.129C347.028 399.752 346.523 400.258 345.899 400.258H328.129C327.506 400.258 327 399.752 327 399.129C327 398.506 327.506 398 328.129 398H345.899Z" fill="black" fill-opacity="0.2"></path>
<path d="M345.899 398C346.523 398 347.028 398.505 347.028 399.129C347.028 399.752 346.523 400.258 345.899 400.258H328.129C327.506 400.258 327 399.752 327 399.129C327 398.506 327.506 398 328.129 398H345.899Z" fill="black" fill-opacity="0.2"></path>
<path d="M345.899 398C346.523 398 347.028 398.505 347.028 399.129C347.028 399.752 346.523 400.258 345.899 400.258H328.129C327.506 400.258 327 399.752 327 399.129C327 398.506 327.506 398 328.129 398H345.899Z" fill="black" fill-opacity="0.2"></path>
</g>
<rect x="8" y="648" width="134" height="54" rx="27" fill="#F3F4F6" fill-opacity="0.92"></rect>
<path d="M44.6748 679.1C45.1719 679.1 45.5752 679.503 45.5752 680C45.5752 680.497 45.1719 680.9 44.6748 680.9H29C28.5029 680.9 28.0996 680.497 28.0996 680C28.0996 679.503 28.5029 679.1 29 679.1H44.6748ZM44.6748 674.1C45.1719 674.1 45.5752 674.503 45.5752 675C45.5752 675.497 45.1719 675.9 44.6748 675.9H29C28.5029 675.9 28.0996 675.497 28.0996 675C28.0996 674.503 28.5029 674.1 29 674.1H44.6748ZM44.6748 669.1C45.1719 669.1 45.5752 669.503 45.5752 670C45.5752 670.497 45.1719 670.9 44.6748 670.9H29C28.5029 670.9 28.0996 670.497 28.0996 670C28.0996 669.503 28.5029 669.1 29 669.1H44.6748Z" fill="#FE5C1C"></path>
<path d="M67.53 676.038C67.2407 676.971 66.8953 677.709 66.494 678.25C66.102 678.791 65.472 679.253 64.604 679.636C63.7453 680.019 62.756 680.21 61.636 680.21C60.4133 680.21 59.3447 679.981 58.43 679.524C57.5153 679.067 56.8013 678.427 56.288 677.606C55.784 676.785 55.532 675.828 55.532 674.736C55.532 673.644 55.784 672.687 56.288 671.866C56.8013 671.045 57.5153 670.405 58.43 669.948C59.3447 669.491 60.4133 669.262 61.636 669.262C62.756 669.262 63.7453 669.453 64.604 669.836C65.472 670.219 66.13 670.695 66.578 671.264C67.0353 671.833 67.376 672.575 67.6 673.49L64.744 673.882C64.6507 673.434 64.4687 673.056 64.198 672.748C63.9273 672.431 63.5727 672.188 63.134 672.02C62.7047 671.852 62.2053 671.768 61.636 671.768C60.9827 671.768 60.418 671.889 59.942 672.132C59.466 672.365 59.102 672.706 58.85 673.154C58.598 673.593 58.472 674.12 58.472 674.736C58.472 675.352 58.598 675.884 58.85 676.332C59.102 676.771 59.466 677.111 59.942 677.354C60.418 677.587 60.9827 677.704 61.636 677.704C62.2053 677.704 62.7047 677.625 63.134 677.466C63.5727 677.307 63.9273 677.069 64.198 676.752C64.4687 676.435 64.6507 676.047 64.744 675.59L67.53 676.038ZM78.2493 672.006V680H75.3793V672.832L76.6953 674.134H70.3673L71.6833 672.832V680H68.8133V672.006H78.2493ZM79.8192 680V672.006H82.6472V678.446L82.0312 678.25L86.2172 672.006H89.8852V680H87.0712V673.378L87.6872 673.588L83.3892 680H79.8192ZM101.002 676.626C100.927 677.345 100.666 677.975 100.218 678.516C99.7696 679.057 99.1863 679.477 98.4676 679.776C97.7583 680.075 96.9603 680.224 96.0736 680.224C95.0936 680.224 94.2303 680.047 93.4836 679.692C92.7369 679.337 92.1536 678.843 91.7336 678.208C91.3136 677.573 91.1036 676.841 91.1036 676.01C91.1036 675.17 91.3136 674.433 91.7336 673.798C92.1536 673.163 92.7369 672.669 93.4836 672.314C94.2303 671.95 95.0936 671.768 96.0736 671.768C96.9603 671.768 97.7583 671.922 98.4676 672.23C99.1863 672.529 99.7696 672.949 100.218 673.49C100.666 674.022 100.927 674.652 101.002 675.38H98.1596C98.0569 674.904 97.8189 674.54 97.4456 674.288C97.0723 674.027 96.6149 673.896 96.0736 673.896C95.6536 673.896 95.2849 673.98 94.9676 674.148C94.6596 674.307 94.4169 674.545 94.2396 674.862C94.0716 675.17 93.9876 675.553 93.9876 676.01C93.9876 676.458 94.0716 676.841 94.2396 677.158C94.4169 677.466 94.6596 677.704 94.9676 677.872C95.2849 678.031 95.6536 678.11 96.0736 678.11C96.6149 678.11 97.0723 677.975 97.4456 677.704C97.8283 677.433 98.0663 677.074 98.1596 676.626H101.002ZM106.892 680.224C105.865 680.224 104.969 680.051 104.204 679.706C103.438 679.351 102.841 678.857 102.412 678.222C101.982 677.578 101.768 676.841 101.768 676.01C101.768 675.161 101.982 674.419 102.412 673.784C102.841 673.149 103.438 672.655 104.204 672.3C104.969 671.945 105.865 671.768 106.892 671.768C107.909 671.768 108.8 671.945 109.566 672.3C110.34 672.655 110.942 673.149 111.372 673.784C111.801 674.419 112.016 675.161 112.016 676.01C112.016 676.841 111.801 677.578 111.372 678.222C110.942 678.857 110.34 679.351 109.566 679.706C108.8 680.051 107.909 680.224 106.892 680.224ZM106.892 678.11C107.358 678.11 107.755 678.026 108.082 677.858C108.418 677.69 108.674 677.447 108.852 677.13C109.029 676.813 109.118 676.439 109.118 676.01C109.118 675.562 109.029 675.184 108.852 674.876C108.674 674.559 108.418 674.316 108.082 674.148C107.755 673.98 107.358 673.896 106.892 673.896C106.425 673.896 106.024 673.98 105.688 674.148C105.352 674.316 105.095 674.559 104.918 674.876C104.74 675.184 104.652 675.557 104.652 675.996C104.652 676.435 104.74 676.813 104.918 677.13C105.095 677.447 105.352 677.69 105.688 677.858C106.024 678.026 106.425 678.11 106.892 678.11ZM113.22 680V672.006H116.09V677.774L115.25 677.48L119.702 672.006H122.726L115.768 680H113.22ZM119.73 680L117.448 676.094L119.604 674.582L122.95 680H119.73Z" fill="#FE5C1C"></path>
<rect x="313" y="648" width="54" height="54" rx="27" fill="#F3F4F6" fill-opacity="0.92"></rect>
<path fill-rule="evenodd" clip-rule="evenodd" d="M340.001 666.707C340.498 666.707 340.901 667.11 340.901 667.607V674.074H347.39C347.887 674.074 348.29 674.478 348.29 674.975C348.29 675.472 347.887 675.875 347.39 675.875H340.901V682.34C340.901 682.837 340.498 683.24 340.001 683.24C339.504 683.24 339.101 682.837 339.101 682.34V675.875H332.61C332.113 675.875 331.71 675.472 331.71 674.975C331.71 674.478 332.113 674.074 332.61 674.074H339.101V667.607C339.101 667.11 339.504 666.707 340.001 666.707Z" fill="#FE5C1C"></path>
<path d="M340.001 666.707L340.001 666.207H340.001V666.707ZM340.901 674.074H340.401V674.574H340.901V674.074ZM347.39 674.074L347.39 673.574H347.39V674.074ZM348.29 674.975H348.79V674.975L348.29 674.975ZM347.39 675.875V676.375H347.39L347.39 675.875ZM340.901 675.875V675.375H340.401V675.875H340.901ZM340.901 682.34H341.401H340.901ZM340.001 683.24V683.74H340.001L340.001 683.24ZM339.101 682.34H338.601H339.101ZM339.101 675.875H339.601V675.375H339.101V675.875ZM332.61 675.875V675.375V675.875ZM331.71 674.975L331.21 674.975V674.975H331.71ZM332.61 674.074V673.574V674.074ZM339.101 674.074V674.574H339.601V674.074H339.101ZM340.001 666.707L340.001 667.207C340.222 667.207 340.401 667.387 340.401 667.607H340.901H341.401C341.401 666.834 340.774 666.207 340.001 666.207L340.001 666.707ZM340.901 667.607H340.401V674.074H340.901H341.401V667.607H340.901ZM340.901 674.074V674.574H347.39V674.074V673.574H340.901V674.074ZM347.39 674.074L347.39 674.574C347.61 674.574 347.79 674.754 347.79 674.975L348.29 674.975L348.79 674.975C348.79 674.202 348.163 673.574 347.39 673.574L347.39 674.074ZM348.29 674.975H347.79C347.79 675.195 347.611 675.375 347.39 675.375L347.39 675.875L347.39 676.375C348.163 676.375 348.79 675.748 348.79 674.975H348.29ZM347.39 675.875V675.375H340.901V675.875V676.375H347.39V675.875ZM340.901 675.875H340.401V682.34H340.901H341.401V675.875H340.901ZM340.901 682.34H340.401C340.401 682.561 340.222 682.74 340.001 682.74L340.001 683.24L340.001 683.74C340.774 683.74 341.401 683.113 341.401 682.34H340.901ZM340.001 683.24V682.74C339.78 682.74 339.601 682.561 339.601 682.34H339.101H338.601C338.601 683.113 339.228 683.74 340.001 683.74V683.24ZM339.101 682.34H339.601V675.875H339.101H338.601V682.34H339.101ZM339.101 675.875V675.375H332.61V675.875V676.375H339.101V675.875ZM332.61 675.875V675.375C332.389 675.375 332.21 675.196 332.21 674.975H331.71H331.21C331.21 675.748 331.837 676.375 332.61 676.375V675.875ZM331.71 674.975L332.21 674.975C332.21 674.754 332.39 674.574 332.61 674.574V674.074V673.574C331.837 673.574 331.21 674.202 331.21 674.975L331.71 674.975ZM332.61 674.074V674.574H339.101V674.074V673.574H332.61V674.074ZM339.101 674.074H339.601V667.607H339.101H338.601V674.074H339.101ZM339.101 667.607H339.601C339.601 667.387 339.78 667.207 340.001 667.207V666.707V666.207C339.228 666.207 338.601 666.834 338.601 667.607H339.101Z" fill="#FE5C1C"></path>
<g data-figma-bg-blur-radius="4">
<rect x="8" y="722" width="360" height="62" rx="31" fill="#F1F2F4" fill-opacity="0.92"></rect>
<path d="M12.5 753C12.5 738.088 24.5883 726 39.5 726H77.5C92.4117 726 104.5 738.088 104.5 753C104.5 767.912 92.4117 780 77.5 780H39.5C24.5883 780 12.5 767.912 12.5 753Z" fill="#2F33F9"></path>
<path d="M66.124 755.721V764H61.416V759.511C61.416 758.722 60.7919 758.013 59.9375 758.012H57.0625C56.208 758.012 55.583 758.722 55.583 759.511V764H50.875L50.875 755.721L58.499 749.224L66.124 755.721Z" fill="white" stroke="white" stroke-width="2"></path>
<path d="M69.0412 753.977C68.8275 753.977 68.6128 753.904 68.4346 753.752L58.4999 745.288L48.5651 753.752C48.155 754.1 47.5522 754.038 47.2168 753.611C46.8814 753.184 46.9418 752.555 47.3519 752.207L57.8933 743.226C58.2459 742.925 58.7538 742.925 59.1074 743.226L69.6488 752.207C70.058 752.556 70.1183 753.184 69.7839 753.611C69.5941 753.853 69.3182 753.977 69.0412 753.977Z" fill="white"></path>
<path d="M138.967 761.89H136.223V758.231H134.394V753.658C134.394 752.647 135.212 751.829 136.223 751.829H137.138M150.033 761.89H152.777V758.231H154.606V753.658C154.606 752.647 153.788 751.829 152.777 751.829H151.862M137.144 749.026C136.134 749.026 135.315 748.208 135.315 747.197C135.315 746.186 136.134 745.368 137.144 745.368C138.155 745.368 138.974 746.186 138.974 747.197C138.974 748.208 138.155 749.026 137.144 749.026ZM151.856 749.026C152.867 749.026 153.685 748.208 153.685 747.197C153.685 746.186 152.867 745.368 151.856 745.368C150.845 745.368 150.027 746.186 150.027 747.197C150.027 748.208 150.845 749.026 151.856 749.026ZM144.5 749.027C142.984 749.027 141.756 747.798 141.756 746.283C141.756 744.767 142.984 743.539 144.5 743.539C146.016 743.539 147.244 744.767 147.244 746.283C147.244 747.798 146.016 749.027 144.5 749.027ZM147.244 763.719H141.756V758.231H139.927V753.658C139.927 752.647 140.745 751.829 141.756 751.829H147.244C148.255 751.829 149.073 752.647 149.073 753.658V759.146H147.244V763.719Z" stroke="#323743" stroke-width="1.88167" stroke-miterlimit="10" stroke-linecap="round"></path>
<path d="M138.967 761.89H136.223V758.231H134.394V753.658C134.394 752.647 135.212 751.829 136.223 751.829H137.138M150.033 761.89H152.777V758.231H154.606V753.658C154.606 752.647 153.788 751.829 152.777 751.829H151.862M137.144 749.026C136.134 749.026 135.315 748.208 135.315 747.197C135.315 746.186 136.134 745.368 137.144 745.368C138.155 745.368 138.974 746.186 138.974 747.197C138.974 748.208 138.155 749.026 137.144 749.026ZM151.856 749.026C152.867 749.026 153.685 748.208 153.685 747.197C153.685 746.186 152.867 745.368 151.856 745.368C150.845 745.368 150.027 746.186 150.027 747.197C150.027 748.208 150.845 749.026 151.856 749.026ZM144.5 749.027C142.984 749.027 141.756 747.798 141.756 746.283C141.756 744.767 142.984 743.539 144.5 743.539C146.016 743.539 147.244 744.767 147.244 746.283C147.244 747.798 146.016 749.027 144.5 749.027ZM147.244 763.719H141.756V758.231H139.927V753.658C139.927 752.647 140.745 751.829 141.756 751.829H147.244C148.255 751.829 149.073 752.647 149.073 753.658V759.146H147.244V763.719Z" stroke="black" stroke-opacity="0.2" stroke-width="1.88167" stroke-miterlimit="10" stroke-linecap="round"></path>
<path d="M138.967 761.89H136.223V758.231H134.394V753.658C134.394 752.647 135.212 751.829 136.223 751.829H137.138M150.033 761.89H152.777V758.231H154.606V753.658C154.606 752.647 153.788 751.829 152.777 751.829H151.862M137.144 749.026C136.134 749.026 135.315 748.208 135.315 747.197C135.315 746.186 136.134 745.368 137.144 745.368C138.155 745.368 138.974 746.186 138.974 747.197C138.974 748.208 138.155 749.026 137.144 749.026ZM151.856 749.026C152.867 749.026 153.685 748.208 153.685 747.197C153.685 746.186 152.867 745.368 151.856 745.368C150.845 745.368 150.027 746.186 150.027 747.197C150.027 748.208 150.845 749.026 151.856 749.026ZM144.5 749.027C142.984 749.027 141.756 747.798 141.756 746.283C141.756 744.767 142.984 743.539 144.5 743.539C146.016 743.539 147.244 744.767 147.244 746.283C147.244 747.798 146.016 749.027 144.5 749.027ZM147.244 763.719H141.756V758.231H139.927V753.658C139.927 752.647 140.745 751.829 141.756 751.829H147.244C148.255 751.829 149.073 752.647 149.073 753.658V759.146H147.244V763.719Z" stroke="black" stroke-opacity="0.2" stroke-width="1.88167" stroke-miterlimit="10" stroke-linecap="round"></path>
<path d="M138.967 761.89H136.223V758.231H134.394V753.658C134.394 752.647 135.212 751.829 136.223 751.829H137.138M150.033 761.89H152.777V758.231H154.606V753.658C154.606 752.647 153.788 751.829 152.777 751.829H151.862M137.144 749.026C136.134 749.026 135.315 748.208 135.315 747.197C135.315 746.186 136.134 745.368 137.144 745.368C138.155 745.368 138.974 746.186 138.974 747.197C138.974 748.208 138.155 749.026 137.144 749.026ZM151.856 749.026C152.867 749.026 153.685 748.208 153.685 747.197C153.685 746.186 152.867 745.368 151.856 745.368C150.845 745.368 150.027 746.186 150.027 747.197C150.027 748.208 150.845 749.026 151.856 749.026ZM144.5 749.027C142.984 749.027 141.756 747.798 141.756 746.283C141.756 744.767 142.984 743.539 144.5 743.539C146.016 743.539 147.244 744.767 147.244 746.283C147.244 747.798 146.016 749.027 144.5 749.027ZM147.244 763.719H141.756V758.231H139.927V753.658C139.927 752.647 140.745 751.829 141.756 751.829H147.244C148.255 751.829 149.073 752.647 149.073 753.658V759.146H147.244V763.719Z" stroke="black" stroke-opacity="0.2" stroke-width="1.88167" stroke-miterlimit="10" stroke-linecap="round"></path>
<path d="M239.395 753.561C239.378 752.671 239.724 751.813 240.353 751.184C240.983 750.555 241.841 750.209 242.73 750.225V745.778C242.73 744.55 241.735 743.554 240.506 743.554H220.493C219.265 743.554 218.27 744.55 218.27 745.778V750.225C220.112 750.225 221.605 751.719 221.605 753.561C221.605 755.403 220.112 756.896 218.27 756.896V761.344C218.27 762.572 219.265 763.567 220.493 763.567H240.506C241.735 763.567 242.73 762.572 242.73 761.344V756.896C241.841 756.913 240.983 756.567 240.353 755.937C239.724 755.308 239.378 754.45 239.395 753.561Z" stroke="#323743" stroke-width="1.88167" stroke-miterlimit="10" stroke-linecap="square"></path>
<path d="M239.395 753.561C239.378 752.671 239.724 751.813 240.353 751.184C240.983 750.555 241.841 750.209 242.73 750.225V745.778C242.73 744.55 241.735 743.554 240.506 743.554H220.493C219.265 743.554 218.27 744.55 218.27 745.778V750.225C220.112 750.225 221.605 751.719 221.605 753.561C221.605 755.403 220.112 756.896 218.27 756.896V761.344C218.27 762.572 219.265 763.567 220.493 763.567H240.506C241.735 763.567 242.73 762.572 242.73 761.344V756.896C241.841 756.913 240.983 756.567 240.353 755.937C239.724 755.308 239.378 754.45 239.395 753.561Z" stroke="black" stroke-opacity="0.2" stroke-width="1.88167" stroke-miterlimit="10" stroke-linecap="square"></path>
<path d="M239.395 753.561C239.378 752.671 239.724 751.813 240.353 751.184C240.983 750.555 241.841 750.209 242.73 750.225V745.778C242.73 744.55 241.735 743.554 240.506 743.554H220.493C219.265 743.554 218.27 744.55 218.27 745.778V750.225C220.112 750.225 221.605 751.719 221.605 753.561C221.605 755.403 220.112 756.896 218.27 756.896V761.344C218.27 762.572 219.265 763.567 220.493 763.567H240.506C241.735 763.567 242.73 762.572 242.73 761.344V756.896C241.841 756.913 240.983 756.567 240.353 755.937C239.724 755.308 239.378 754.45 239.395 753.561Z" stroke="black" stroke-opacity="0.2" stroke-width="1.88167" stroke-miterlimit="10" stroke-linecap="square"></path>
<path d="M239.395 753.561C239.378 752.671 239.724 751.813 240.353 751.184C240.983 750.555 241.841 750.209 242.73 750.225V745.778C242.73 744.55 241.735 743.554 240.506 743.554H220.493C219.265 743.554 218.27 744.55 218.27 745.778V750.225C220.112 750.225 221.605 751.719 221.605 753.561C221.605 755.403 220.112 756.896 218.27 756.896V761.344C218.27 762.572 219.265 763.567 220.493 763.567H240.506C241.735 763.567 242.73 762.572 242.73 761.344V756.896C241.841 756.913 240.983 756.567 240.353 755.937C239.724 755.308 239.378 754.45 239.395 753.561Z" stroke="black" stroke-opacity="0.2" stroke-width="1.88167" stroke-miterlimit="10" stroke-linecap="square"></path>
<path d="M234.947 750.226H226.052V756.897H234.947V750.226Z" stroke="#323743" stroke-width="1.88167" stroke-miterlimit="10" stroke-linecap="square"></path>
<path d="M234.947 750.226H226.052V756.897H234.947V750.226Z" stroke="black" stroke-opacity="0.2" stroke-width="1.88167" stroke-miterlimit="10" stroke-linecap="square"></path>
<path d="M234.947 750.226H226.052V756.897H234.947V750.226Z" stroke="black" stroke-opacity="0.2" stroke-width="1.88167" stroke-miterlimit="10" stroke-linecap="square"></path>
<path d="M234.947 750.226H226.052V756.897H234.947V750.226Z" stroke="black" stroke-opacity="0.2" stroke-width="1.88167" stroke-miterlimit="10" stroke-linecap="square"></path>
<path d="M323.81 755.43C323.81 755.154 323.586 754.93 323.31 754.93H321.873C321.597 754.93 321.373 755.154 321.373 755.43V758.084C321.373 758.361 321.149 758.584 320.873 758.584H318.218C317.942 758.584 317.718 758.808 317.718 759.084V760.521C317.718 760.797 317.942 761.021 318.218 761.021H320.873C321.149 761.021 321.373 761.245 321.373 761.521V764.176C321.373 764.452 321.597 764.676 321.873 764.676H323.31C323.586 764.676 323.81 764.452 323.81 764.176V761.521C323.81 761.245 324.033 761.021 324.31 761.021H326.964C327.24 761.021 327.464 760.797 327.464 760.521V759.084C327.464 758.808 327.24 758.584 326.964 758.584H324.31C324.033 758.584 323.81 758.361 323.81 758.084V755.43Z" fill="#323743"></path>
<path d="M323.81 755.43C323.81 755.154 323.586 754.93 323.31 754.93H321.873C321.597 754.93 321.373 755.154 321.373 755.43V758.084C321.373 758.361 321.149 758.584 320.873 758.584H318.218C317.942 758.584 317.718 758.808 317.718 759.084V760.521C317.718 760.797 317.942 761.021 318.218 761.021H320.873C321.149 761.021 321.373 761.245 321.373 761.521V764.176C321.373 764.452 321.597 764.676 321.873 764.676H323.31C323.586 764.676 323.81 764.452 323.81 764.176V761.521C323.81 761.245 324.033 761.021 324.31 761.021H326.964C327.24 761.021 327.464 760.797 327.464 760.521V759.084C327.464 758.808 327.24 758.584 326.964 758.584H324.31C324.033 758.584 323.81 758.361 323.81 758.084V755.43Z" fill="black" fill-opacity="0.2"></path>
<path d="M323.81 755.43C323.81 755.154 323.586 754.93 323.31 754.93H321.873C321.597 754.93 321.373 755.154 321.373 755.43V758.084C321.373 758.361 321.149 758.584 320.873 758.584H318.218C317.942 758.584 317.718 758.808 317.718 759.084V760.521C317.718 760.797 317.942 761.021 318.218 761.021H320.873C321.149 761.021 321.373 761.245 321.373 761.521V764.176C321.373 764.452 321.597 764.676 321.873 764.676H323.31C323.586 764.676 323.81 764.452 323.81 764.176V761.521C323.81 761.245 324.033 761.021 324.31 761.021H326.964C327.24 761.021 327.464 760.797 327.464 760.521V759.084C327.464 758.808 327.24 758.584 326.964 758.584H324.31C324.033 758.584 323.81 758.361 323.81 758.084V755.43Z" fill="black" fill-opacity="0.2"></path>
<path d="M323.81 755.43C323.81 755.154 323.586 754.93 323.31 754.93H321.873C321.597 754.93 321.373 755.154 321.373 755.43V758.084C321.373 758.361 321.149 758.584 320.873 758.584H318.218C317.942 758.584 317.718 758.808 317.718 759.084V760.521C317.718 760.797 317.942 761.021 318.218 761.021H320.873C321.149 761.021 321.373 761.245 321.373 761.521V764.176C321.373 764.452 321.597 764.676 321.873 764.676H323.31C323.586 764.676 323.81 764.452 323.81 764.176V761.521C323.81 761.245 324.033 761.021 324.31 761.021H326.964C327.24 761.021 327.464 760.797 327.464 760.521V759.084C327.464 758.808 327.24 758.584 326.964 758.584H324.31C324.033 758.584 323.81 758.361 323.81 758.084V755.43Z" fill="black" fill-opacity="0.2"></path>
<path d="M305.899 751V744C305.899 743.448 306.347 743 306.899 743H313.899C314.452 743 314.899 743.448 314.899 744V751C314.899 751.552 314.452 752 313.899 752H306.899C306.347 752 305.899 751.552 305.899 751Z" stroke="#323743" stroke-width="1.88"></path>
<path d="M305.899 751V744C305.899 743.448 306.347 743 306.899 743H313.899C314.452 743 314.899 743.448 314.899 744V751C314.899 751.552 314.452 752 313.899 752H306.899C306.347 752 305.899 751.552 305.899 751Z" stroke="black" stroke-opacity="0.2" stroke-width="1.88"></path>
<path d="M305.899 751V744C305.899 743.448 306.347 743 306.899 743H313.899C314.452 743 314.899 743.448 314.899 744V751C314.899 751.552 314.452 752 313.899 752H306.899C306.347 752 305.899 751.552 305.899 751Z" stroke="black" stroke-opacity="0.2" stroke-width="1.88"></path>
<path d="M305.899 751V744C305.899 743.448 306.347 743 306.899 743H313.899C314.452 743 314.899 743.448 314.899 744V751C314.899 751.552 314.452 752 313.899 752H306.899C306.347 752 305.899 751.552 305.899 751Z" stroke="black" stroke-opacity="0.2" stroke-width="1.88"></path>
<path d="M317.899 751V744C317.899 743.448 318.347 743 318.899 743H325.899C326.452 743 326.899 743.448 326.899 744V751C326.899 751.552 326.452 752 325.899 752H318.899C318.347 752 317.899 751.552 317.899 751Z" stroke="#323743" stroke-width="1.88"></path>
<path d="M317.899 751V744C317.899 743.448 318.347 743 318.899 743H325.899C326.452 743 326.899 743.448 326.899 744V751C326.899 751.552 326.452 752 325.899 752H318.899C318.347 752 317.899 751.552 317.899 751Z" stroke="black" stroke-opacity="0.2" stroke-width="1.88"></path>
<path d="M317.899 751V744C317.899 743.448 318.347 743 318.899 743H325.899C326.452 743 326.899 743.448 326.899 744V751C326.899 751.552 326.452 752 325.899 752H318.899C318.347 752 317.899 751.552 317.899 751Z" stroke="black" stroke-opacity="0.2" stroke-width="1.88"></path>
<path d="M317.899 751V744C317.899 743.448 318.347 743 318.899 743H325.899C326.452 743 326.899 743.448 326.899 744V751C326.899 751.552 326.452 752 325.899 752H318.899C318.347 752 317.899 751.552 317.899 751Z" stroke="black" stroke-opacity="0.2" stroke-width="1.88"></path>
<path d="M305.899 763.303V756.303C305.899 755.75 306.347 755.303 306.899 755.303H313.899C314.452 755.303 314.899 755.75 314.899 756.303V763.303C314.899 763.855 314.452 764.303 313.899 764.303H306.899C306.347 764.303 305.899 763.855 305.899 763.303Z" stroke="#323743" stroke-width="1.88"></path>
<path d="M305.899 763.303V756.303C305.899 755.75 306.347 755.303 306.899 755.303H313.899C314.452 755.303 314.899 755.75 314.899 756.303V763.303C314.899 763.855 314.452 764.303 313.899 764.303H306.899C306.347 764.303 305.899 763.855 305.899 763.303Z" stroke="black" stroke-opacity="0.2" stroke-width="1.88"></path>
<path d="M305.899 763.303V756.303C305.899 755.75 306.347 755.303 306.899 755.303H313.899C314.452 755.303 314.899 755.75 314.899 756.303V763.303C314.899 763.855 314.452 764.303 313.899 764.303H306.899C306.347 764.303 305.899 763.855 305.899 763.303Z" stroke="black" stroke-opacity="0.2" stroke-width="1.88"></path>
<path d="M305.899 763.303V756.303C305.899 755.75 306.347 755.303 306.899 755.303H313.899C314.452 755.303 314.899 755.75 314.899 756.303V763.303C314.899 763.855 314.452 764.303 313.899 764.303H306.899C306.347 764.303 305.899 763.855 305.899 763.303Z" stroke="black" stroke-opacity="0.2" stroke-width="1.88"></path>
</g>
<rect x="16" y="64" width="273" height="52" rx="26" fill="#F1F2F4" fill-opacity="0.92"></rect>
<path d="M45.4297 82C49.533 82 52.8593 85.3264 52.8594 89.4297C52.8594 91.184 52.2502 92.7953 51.2334 94.0664L54.2578 97.0908L54.3154 97.1533C54.5795 97.4776 54.5599 97.9557 54.2578 98.2578C53.9557 98.5599 53.4776 98.5795 53.1533 98.3154L53.0908 98.2578L50.0664 95.2334C48.7953 96.2502 47.184 96.8594 45.4297 96.8594C41.3264 96.8593 38 93.5331 38 89.4297C38.0001 85.3264 41.3264 82.0001 45.4297 82ZM45.4297 83.6514C42.2383 83.6514 39.6514 86.2383 39.6514 89.4297C39.6514 92.6212 42.2382 95.2089 45.4297 95.209C46.9922 95.209 48.4081 94.5866 49.4482 93.5791C49.4674 93.5552 49.4856 93.53 49.5078 93.5078C49.53 93.4856 49.5551 93.4674 49.5791 93.4482C50.5866 92.4081 51.209 90.9921 51.209 89.4297C51.2089 86.2382 48.6212 83.6514 45.4297 83.6514Z" fill="#8C8D8B"></path>
<path d="M72.554 95V85.2H73.954V95H72.554ZM65.526 95V85.2H66.926V95H65.526ZM66.786 90.632V89.414H72.68V90.632H66.786ZM81.3364 95V93.432L81.2664 93.138V90.464C81.2664 89.8947 81.0984 89.456 80.7624 89.148C80.4357 88.8307 79.941 88.672 79.2784 88.672C78.8397 88.672 78.4104 88.7467 77.9904 88.896C77.5704 89.036 77.2157 89.2273 76.9264 89.47L76.3664 88.462C76.749 88.154 77.2064 87.9207 77.7384 87.762C78.2797 87.594 78.8444 87.51 79.4324 87.51C80.4497 87.51 81.2337 87.7573 81.7844 88.252C82.335 88.7467 82.6104 89.5027 82.6104 90.52V95H81.3364ZM78.9004 95.084C78.3497 95.084 77.8644 94.9907 77.4444 94.804C77.0337 94.6173 76.7164 94.3607 76.4924 94.034C76.2684 93.698 76.1564 93.32 76.1564 92.9C76.1564 92.4987 76.2497 92.1347 76.4364 91.808C76.6324 91.4813 76.945 91.22 77.3744 91.024C77.813 90.828 78.401 90.73 79.1384 90.73H81.4904V91.696H79.1944C78.5224 91.696 78.0697 91.808 77.8364 92.032C77.603 92.256 77.4864 92.5267 77.4864 92.844C77.4864 93.208 77.631 93.502 77.9204 93.726C78.2097 93.9407 78.611 94.048 79.1244 94.048C79.6284 94.048 80.067 93.936 80.4404 93.712C80.823 93.488 81.0984 93.1613 81.2664 92.732L81.5324 93.656C81.355 94.0947 81.0424 94.4447 80.5944 94.706C80.1464 94.958 79.5817 95.084 78.9004 95.084ZM87.2005 95.098C86.6405 95.098 86.0898 95.028 85.5485 94.888C85.0165 94.7387 84.5405 94.5287 84.1205 94.258L84.5265 93.236C84.8812 93.46 85.2872 93.6373 85.7445 93.768C86.2018 93.8893 86.6638 93.95 87.1305 93.95C87.5598 93.95 87.9285 93.8987 88.2365 93.796C88.5538 93.6933 88.7965 93.5533 88.9645 93.376C89.1325 93.1893 89.2165 92.9747 89.2165 92.732C89.2165 92.3867 89.0625 92.1207 88.7545 91.934C88.4465 91.7473 88.0172 91.654 87.4665 91.654H85.8705V90.688H87.3825C87.7092 90.688 87.9938 90.6507 88.2365 90.576C88.4792 90.5013 88.6658 90.3893 88.7965 90.24C88.9365 90.0813 89.0065 89.8993 89.0065 89.694C89.0065 89.47 88.9272 89.2787 88.7685 89.12C88.6098 88.9613 88.3858 88.84 88.0965 88.756C87.8165 88.672 87.4852 88.63 87.1025 88.63C86.7292 88.6393 86.3465 88.6907 85.9545 88.784C85.5718 88.8773 85.1798 89.022 84.7785 89.218L84.4145 88.168C84.8625 87.9533 85.3012 87.79 85.7305 87.678C86.1692 87.5567 86.6032 87.4913 87.0325 87.482C87.6765 87.4633 88.2505 87.538 88.7545 87.706C89.2585 87.8647 89.6552 88.098 89.9445 88.406C90.2432 88.714 90.3925 89.078 90.3925 89.498C90.3925 89.8527 90.2805 90.17 90.0565 90.45C89.8325 90.7207 89.5338 90.9353 89.1605 91.094C88.7872 91.2527 88.3578 91.332 87.8725 91.332L87.9285 91.01C88.7592 91.01 89.4125 91.1733 89.8885 91.5C90.3645 91.8267 90.6025 92.27 90.6025 92.83C90.6025 93.278 90.4532 93.6747 90.1545 94.02C89.8558 94.356 89.4498 94.622 88.9365 94.818C88.4325 95.0047 87.8538 95.098 87.2005 95.098ZM92.6458 95V87.58H96.0898C96.9578 87.58 97.6391 87.748 98.1338 88.084C98.6378 88.4107 98.8898 88.8773 98.8898 89.484C98.8898 90.0907 98.6518 90.562 98.1758 90.898C97.7091 91.2247 97.0884 91.388 96.3138 91.388L96.5238 91.024C97.4104 91.024 98.0684 91.1873 98.4978 91.514C98.9271 91.8407 99.1418 92.3213 99.1418 92.956C99.1418 93.6 98.8991 94.104 98.4137 94.468C97.9378 94.8227 97.2051 95 96.2158 95H92.6458ZM93.9618 93.964H96.1178C96.6778 93.964 97.0978 93.88 97.3778 93.712C97.6578 93.5347 97.7978 93.2547 97.7978 92.872C97.7978 92.48 97.6671 92.1953 97.4058 92.018C97.1538 91.8313 96.7524 91.738 96.2018 91.738H93.9618V93.964ZM93.9618 90.772H95.9778C96.4911 90.772 96.8784 90.6787 97.1398 90.492C97.4104 90.296 97.5458 90.0253 97.5458 89.68C97.5458 89.3253 97.4104 89.0593 97.1398 88.882C96.8784 88.7047 96.4911 88.616 95.9778 88.616H93.9618V90.772ZM105.795 95V93.432L105.725 93.138V90.464C105.725 89.8947 105.557 89.456 105.221 89.148C104.895 88.8307 104.4 88.672 103.737 88.672C103.299 88.672 102.869 88.7467 102.449 88.896C102.029 89.036 101.675 89.2273 101.385 89.47L100.825 88.462C101.208 88.154 101.665 87.9207 102.197 87.762C102.739 87.594 103.303 87.51 103.891 87.51C104.909 87.51 105.693 87.7573 106.243 88.252C106.794 88.7467 107.069 89.5027 107.069 90.52V95H105.795ZM103.359 95.084C102.809 95.084 102.323 94.9907 101.903 94.804C101.493 94.6173 101.175 94.3607 100.951 94.034C100.727 93.698 100.615 93.32 100.615 92.9C100.615 92.4987 100.709 92.1347 100.895 91.808C101.091 91.4813 101.404 91.22 101.833 91.024C102.272 90.828 102.86 90.73 103.597 90.73H105.949V91.696H103.653C102.981 91.696 102.529 91.808 102.295 92.032C102.062 92.256 101.945 92.5267 101.945 92.844C101.945 93.208 102.09 93.502 102.379 93.726C102.669 93.9407 103.07 94.048 103.583 94.048C104.087 94.048 104.526 93.936 104.899 93.712C105.282 93.488 105.557 93.1613 105.725 92.732L105.991 93.656C105.814 94.0947 105.501 94.4447 105.053 94.706C104.605 94.958 104.041 95.084 103.359 95.084ZM109.49 95V87.58H110.834V90.73H115.062V87.58H116.406V95H115.062V91.892H110.834V95H109.49ZM119.019 95V87.58H120.363V92.984L124.913 87.58H126.131V95H124.787V89.596L120.251 95H119.019ZM132.044 95.084C131.25 95.084 130.55 94.9207 129.944 94.594C129.346 94.2673 128.88 93.8193 128.544 93.25C128.217 92.6807 128.054 92.0273 128.054 91.29C128.054 90.5527 128.212 89.8993 128.53 89.33C128.856 88.7607 129.3 88.3173 129.86 88C130.429 87.6733 131.068 87.51 131.778 87.51C132.496 87.51 133.131 87.6687 133.682 87.986C134.232 88.3033 134.662 88.7513 134.97 89.33C135.287 89.8993 135.446 90.5667 135.446 91.332C135.446 91.388 135.441 91.4533 135.432 91.528C135.432 91.6027 135.427 91.6727 135.418 91.738H129.104V90.772H134.718L134.172 91.108C134.181 90.632 134.083 90.2073 133.878 89.834C133.672 89.4607 133.388 89.1713 133.024 88.966C132.669 88.7513 132.254 88.644 131.778 88.644C131.311 88.644 130.896 88.7513 130.532 88.966C130.168 89.1713 129.883 89.4653 129.678 89.848C129.472 90.2213 129.37 90.6507 129.37 91.136V91.36C129.37 91.8547 129.482 92.298 129.706 92.69C129.939 93.0727 130.261 93.3713 130.672 93.586C131.082 93.8007 131.554 93.908 132.086 93.908C132.524 93.908 132.921 93.8333 133.276 93.684C133.64 93.5347 133.957 93.3107 134.228 93.012L134.97 93.88C134.634 94.272 134.214 94.5707 133.71 94.776C133.215 94.9813 132.66 95.084 132.044 95.084ZM144.524 95.084C143.768 95.084 143.092 94.9207 142.494 94.594C141.906 94.2673 141.444 93.8193 141.108 93.25C140.772 92.6807 140.604 92.0273 140.604 91.29C140.604 90.5527 140.772 89.8993 141.108 89.33C141.444 88.7607 141.906 88.3173 142.494 88C143.092 87.6733 143.768 87.51 144.524 87.51C145.196 87.51 145.794 87.6453 146.316 87.916C146.848 88.1773 147.259 88.5693 147.548 89.092L146.526 89.75C146.284 89.386 145.985 89.12 145.63 88.952C145.285 88.7747 144.912 88.686 144.51 88.686C144.025 88.686 143.591 88.7933 143.208 89.008C142.826 89.2227 142.522 89.526 142.298 89.918C142.074 90.3007 141.962 90.758 141.962 91.29C141.962 91.822 142.074 92.284 142.298 92.676C142.522 93.068 142.826 93.3713 143.208 93.586C143.591 93.8007 144.025 93.908 144.51 93.908C144.912 93.908 145.285 93.824 145.63 93.656C145.985 93.4787 146.284 93.208 146.526 92.844L147.548 93.488C147.259 94.0013 146.848 94.398 146.316 94.678C145.794 94.9487 145.196 95.084 144.524 95.084ZM152.357 95.084C151.61 95.084 150.948 94.9207 150.369 94.594C149.79 94.2673 149.333 93.8193 148.997 93.25C148.661 92.6713 148.493 92.018 148.493 91.29C148.493 90.5527 148.661 89.8993 148.997 89.33C149.333 88.7607 149.79 88.3173 150.369 88C150.948 87.6733 151.61 87.51 152.357 87.51C153.094 87.51 153.752 87.6733 154.331 88C154.919 88.3173 155.376 88.7607 155.703 89.33C156.039 89.89 156.207 90.5433 156.207 91.29C156.207 92.0273 156.039 92.6807 155.703 93.25C155.376 93.8193 154.919 94.2673 154.331 94.594C153.752 94.9207 153.094 95.084 152.357 95.084ZM152.357 93.908C152.833 93.908 153.258 93.8007 153.631 93.586C154.014 93.3713 154.312 93.068 154.527 92.676C154.742 92.2747 154.849 91.8127 154.849 91.29C154.849 90.758 154.742 90.3007 154.527 89.918C154.312 89.526 154.014 89.2227 153.631 89.008C153.258 88.7933 152.833 88.686 152.357 88.686C151.881 88.686 151.456 88.7933 151.083 89.008C150.71 89.2227 150.411 89.526 150.187 89.918C149.963 90.3007 149.851 90.758 149.851 91.29C149.851 91.8127 149.963 92.2747 150.187 92.676C150.411 93.068 150.71 93.3713 151.083 93.586C151.456 93.8007 151.881 93.908 152.357 93.908ZM161.578 95.112C160.962 95.112 160.416 95.014 159.94 94.818C159.473 94.622 159.072 94.3327 158.736 93.95C158.4 93.558 158.143 93.068 157.966 92.48C157.798 91.8827 157.714 91.1827 157.714 90.38C157.714 89.7453 157.77 89.176 157.882 88.672C157.994 88.168 158.152 87.72 158.358 87.328C158.572 86.936 158.834 86.5953 159.142 86.306C159.459 86.0167 159.814 85.7787 160.206 85.592C160.607 85.396 161.046 85.2467 161.522 85.144L164.91 84.388L165.106 85.634L161.984 86.306C161.797 86.3433 161.573 86.3993 161.312 86.474C161.05 86.5487 160.784 86.6653 160.514 86.824C160.243 86.9733 159.991 87.1833 159.758 87.454C159.524 87.7247 159.338 88.0793 159.198 88.518C159.058 88.9473 158.988 89.4793 158.988 90.114C158.988 90.2913 158.992 90.4267 159.002 90.52C159.011 90.6133 159.02 90.7067 159.03 90.8C159.048 90.8933 159.062 91.0333 159.072 91.22L158.512 90.646C158.661 90.1327 158.899 89.6847 159.226 89.302C159.552 88.9193 159.944 88.6253 160.402 88.42C160.868 88.2053 161.377 88.098 161.928 88.098C162.618 88.098 163.23 88.2473 163.762 88.546C164.303 88.8447 164.728 89.2553 165.036 89.778C165.344 90.3007 165.498 90.898 165.498 91.57C165.498 92.2513 165.334 92.8627 165.008 93.404C164.69 93.936 164.238 94.356 163.65 94.664C163.062 94.9627 162.371 95.112 161.578 95.112ZM161.704 93.992C162.18 93.992 162.6 93.8893 162.964 93.684C163.328 93.4693 163.612 93.1847 163.818 92.83C164.023 92.466 164.126 92.06 164.126 91.612C164.126 91.164 164.023 90.7673 163.818 90.422C163.612 90.0767 163.328 89.806 162.964 89.61C162.6 89.4047 162.17 89.302 161.676 89.302C161.209 89.302 160.789 89.4 160.416 89.596C160.042 89.7827 159.753 90.0487 159.548 90.394C159.342 90.73 159.24 91.122 159.24 91.57C159.24 92.018 159.342 92.4287 159.548 92.802C159.762 93.166 160.052 93.4553 160.416 93.67C160.789 93.8847 161.218 93.992 161.704 93.992ZM170.539 95.014L167.417 95V87.58H168.761V90.086L170.763 90.1C171.706 90.1093 172.42 90.324 172.905 90.744C173.4 91.164 173.647 91.7567 173.647 92.522C173.647 93.3247 173.377 93.9453 172.835 94.384C172.303 94.8133 171.538 95.0233 170.539 95.014ZM170.441 93.992C171.039 94.0013 171.496 93.88 171.813 93.628C172.131 93.376 172.289 93.0027 172.289 92.508C172.289 92.0227 172.131 91.668 171.813 91.444C171.505 91.22 171.048 91.1033 170.441 91.094L168.761 91.066V93.978L170.441 93.992ZM174.753 95V87.58H176.097V95H174.753ZM180.18 95V88.406L180.516 88.756H177.464V87.58H184.24V88.756H181.202L181.524 88.406V95H180.18ZM185.615 95V87.58H186.959V92.984L191.508 87.58H192.727V95H191.382V89.596L186.847 95H185.615ZM200.081 95V92.396L200.291 92.648H197.925C196.936 92.648 196.161 92.438 195.601 92.018C195.051 91.598 194.775 90.9867 194.775 90.184C194.775 89.3253 195.069 88.6767 195.657 88.238C196.255 87.7993 197.048 87.58 198.037 87.58H201.285V95H200.081ZM194.705 95L196.721 92.158H198.107L196.147 95H194.705ZM200.081 91.976V88.378L200.291 88.756H198.079C197.463 88.756 196.987 88.8727 196.651 89.106C196.315 89.33 196.147 89.7033 196.147 90.226C196.147 91.1967 196.773 91.682 198.023 91.682H200.291L200.081 91.976Z" fill="#9BA0A5"></path>
<path d="M252.005 84H262.005L256.995 90.3L252.005 84ZM249.255 83.61C251.275 86.2 255.005 91 255.005 91V97C255.005 97.55 255.455 98 256.005 98H258.005C258.555 98 259.005 97.55 259.005 97V91C259.005 91 262.725 86.2 264.745 83.61C265.255 82.95 264.785 82 263.955 82H250.045C249.215 82 248.745 82.95 249.255 83.61Z" fill="#323743"></path>
<path d="M252.005 84H262.005L256.995 90.3L252.005 84ZM249.255 83.61C251.275 86.2 255.005 91 255.005 91V97C255.005 97.55 255.455 98 256.005 98H258.005C258.555 98 259.005 97.55 259.005 97V91C259.005 91 262.725 86.2 264.745 83.61C265.255 82.95 264.785 82 263.955 82H250.045C249.215 82 248.745 82.95 249.255 83.61Z" fill="black" fill-opacity="0.2"></path>
<path d="M252.005 84H262.005L256.995 90.3L252.005 84ZM249.255 83.61C251.275 86.2 255.005 91 255.005 91V97C255.005 97.55 255.455 98 256.005 98H258.005C258.555 98 259.005 97.55 259.005 97V91C259.005 91 262.725 86.2 264.745 83.61C265.255 82.95 264.785 82 263.955 82H250.045C249.215 82 248.745 82.95 249.255 83.61Z" fill="black" fill-opacity="0.2"></path>
<path d="M252.005 84H262.005L256.995 90.3L252.005 84ZM249.255 83.61C251.275 86.2 255.005 91 255.005 91V97C255.005 97.55 255.455 98 256.005 98H258.005C258.555 98 259.005 97.55 259.005 97V91C259.005 91 262.725 86.2 264.745 83.61C265.255 82.95 264.785 82 263.955 82H250.045C249.215 82 248.745 82.95 249.255 83.61Z" fill="black" fill-opacity="0.2"></path>
<path d="M333 64C337.078 64 340.936 64.9391 344.371 66.6123C342.903 68.1399 342 70.2141 342 72.5C342 77.1944 345.806 81 350.5 81C352.786 81 354.859 80.0958 356.387 78.6279C358.06 82.0632 359 85.9217 359 90C359 104.359 347.359 116 333 116H323C308.641 116 297 104.359 297 90C297 75.6406 308.641 64 323 64H333Z" fill="#2F33F9"></path>
<path d="M328 90C330.762 90 333 87.7625 333 85C333 82.2375 330.762 80 328 80C325.238 80 323 82.2375 323 85C323 87.7625 325.238 90 328 90ZM328 92.5C324.662 92.5 318 94.175 318 97.5V100L338 100V97.5C338 94.175 331.337 92.5 328 92.5Z" fill="white"></path>
<rect x="344" y="66" width="13" height="13" rx="6.5" fill="#FE5C1C"></rect>
<rect x="16" y="128" width="129" height="32" rx="16" fill="#F0F0FF"></rect>
<path d="M29.3355 149L29.3355 138.5H32.1915V147.474L31.3935 147.292L37.3435 138.5H41.1375V149H38.2675V139.858L39.0795 140.04L33.0175 149H29.3355ZM47.093 149.224C46.169 149.224 45.357 149.107 44.657 148.874C43.9664 148.631 43.425 148.291 43.033 147.852C42.641 147.404 42.431 146.877 42.403 146.27H45.161C45.217 146.606 45.4084 146.863 45.735 147.04C46.071 147.217 46.5237 147.306 47.093 147.306C47.6437 147.306 48.0684 147.236 48.367 147.096C48.6657 146.956 48.815 146.746 48.815 146.466C48.815 146.214 48.6844 146.032 48.423 145.92C48.1617 145.808 47.7464 145.752 47.177 145.752H45.763V144.212H47.135C47.639 144.212 48.0124 144.147 48.255 144.016C48.4977 143.885 48.619 143.708 48.619 143.484C48.619 143.232 48.4837 143.041 48.213 142.91C47.9424 142.77 47.569 142.7 47.093 142.7C46.5704 142.7 46.1504 142.784 45.833 142.952C45.525 143.111 45.3477 143.349 45.301 143.666H42.557C42.585 143.134 42.781 142.649 43.145 142.21C43.5184 141.771 44.0457 141.421 44.727 141.16C45.4084 140.899 46.2344 140.768 47.205 140.768C48.0637 140.768 48.815 140.871 49.459 141.076C50.103 141.272 50.6024 141.547 50.957 141.902C51.321 142.247 51.503 142.644 51.503 143.092C51.503 143.437 51.391 143.764 51.167 144.072C50.9524 144.371 50.5977 144.609 50.103 144.786C49.6084 144.963 48.9457 145.052 48.115 145.052V144.814C49.2724 144.767 50.159 144.898 50.775 145.206C51.391 145.514 51.699 145.999 51.699 146.662C51.699 147.147 51.517 147.586 51.153 147.978C50.7984 148.361 50.2757 148.664 49.585 148.888C48.9037 149.112 48.073 149.224 47.093 149.224ZM58.0105 149.224C56.8812 149.224 55.9152 149.019 55.1125 148.608C54.3192 148.188 53.7079 147.586 53.2785 146.802C52.8585 146.009 52.6485 145.057 52.6485 143.946C52.6485 142.294 53.1059 140.992 54.0205 140.04C54.9445 139.06 56.2512 138.505 57.9405 138.374C58.6405 138.318 59.2192 138.271 59.6765 138.234C60.1339 138.187 60.5072 138.145 60.7965 138.108C61.0952 138.061 61.3379 137.968 61.5245 137.828C61.7112 137.688 61.9025 137.585 62.0985 137.52L62.1545 139.802C61.9305 139.886 61.6645 140.012 61.3565 140.18C61.0579 140.339 60.6752 140.437 60.2085 140.474C59.7512 140.511 59.1772 140.544 58.4865 140.572C57.2919 140.619 56.4145 140.922 55.8545 141.482C55.3039 142.033 55.0285 142.835 55.0285 143.89V144.184L54.9445 143.974C55.1125 143.507 55.3832 143.106 55.7565 142.77C56.1299 142.434 56.5825 142.177 57.1145 142C57.6465 141.813 58.2252 141.72 58.8505 141.72C59.6625 141.72 60.3719 141.869 60.9785 142.168C61.5852 142.467 62.0565 142.891 62.3925 143.442C62.7285 143.993 62.8965 144.627 62.8965 145.346C62.8965 146.13 62.6912 146.816 62.2805 147.404C61.8792 147.983 61.3145 148.431 60.5865 148.748C59.8585 149.065 58.9999 149.224 58.0105 149.224ZM58.0805 147.11C58.4725 147.11 58.8132 147.04 59.1025 146.9C59.3919 146.76 59.6159 146.559 59.7745 146.298C59.9332 146.037 60.0125 145.738 60.0125 145.402C60.0125 145.047 59.9332 144.744 59.7745 144.492C59.6159 144.24 59.3919 144.044 59.1025 143.904C58.8132 143.764 58.4725 143.694 58.0805 143.694C57.5299 143.694 57.0305 143.839 56.5825 144.128C56.1439 144.408 55.8172 144.8 55.6025 145.304C55.7332 145.845 56.0225 146.284 56.4705 146.62C56.9279 146.947 57.4645 147.11 58.0805 147.11ZM64.1121 141.006H66.9821V143.302L66.8561 143.638V145.878L66.9821 146.536V151.31H64.1121V141.006ZM66.0721 145.01C66.1468 144.441 66.4221 143.769 66.8981 142.994C67.2901 142.341 67.7848 141.799 68.3821 141.37C68.9328 140.969 69.5861 140.768 70.3421 140.768C71.1261 140.768 71.8121 140.945 72.4001 141.3C72.9975 141.655 73.4595 142.149 73.7861 142.784C74.1221 143.419 74.2901 144.161 74.2901 145.01C74.2901 145.841 74.1221 146.578 73.7861 147.222C73.4595 147.857 72.9975 148.351 72.4001 148.706C71.8121 149.051 71.1261 149.224 70.3421 149.224C69.5861 149.224 68.9281 149.037 68.3681 148.664C67.8175 148.281 67.3508 147.773 66.9681 147.138C66.4548 146.298 66.1561 145.589 66.0721 145.01ZM71.4061 145.01C71.4061 144.609 71.3221 144.254 71.1541 143.946C70.9955 143.638 70.7668 143.395 70.4681 143.218C70.1788 143.041 69.8475 142.952 69.4741 142.952C69.0915 142.952 68.7275 143.041 68.3821 143.218C68.0368 143.395 67.7335 143.638 67.4721 143.946C67.2108 144.254 67.0101 144.609 66.8701 145.01C67.0101 145.402 67.2108 145.752 67.4721 146.06C67.7335 146.368 68.0368 146.611 68.3821 146.788C68.7275 146.956 69.0915 147.04 69.4741 147.04C69.8475 147.04 70.1788 146.956 70.4681 146.788C70.7668 146.611 70.9955 146.368 71.1541 146.06C71.3221 145.752 71.4061 145.402 71.4061 145.01ZM82.7521 149L82.3881 146.116L82.7661 145.01L82.3881 143.904L82.7521 141.006H85.7201L85.2161 144.996L85.7201 149H82.7521ZM83.4241 145.01C83.3308 145.598 83.0648 146.251 82.6261 146.97C82.1128 147.791 81.6321 148.347 81.1841 148.636C80.5868 149.028 79.9101 149.224 79.1541 149.224C78.3701 149.224 77.6795 149.051 77.0821 148.706C76.4941 148.351 76.0321 147.857 75.6961 147.222C75.3601 146.578 75.1921 145.841 75.1921 145.01C75.1921 144.161 75.3601 143.419 75.6961 142.784C76.0321 142.149 76.4941 141.655 77.0821 141.3C77.6795 140.945 78.3701 140.768 79.1541 140.768C79.8821 140.768 80.5635 140.964 81.1981 141.356C81.7208 141.673 82.2201 142.219 82.6961 142.994C83.0788 143.601 83.3215 144.273 83.4241 145.01ZM78.0901 145.01C78.0901 145.402 78.1695 145.752 78.3281 146.06C78.4961 146.368 78.7248 146.611 79.0141 146.788C79.3035 146.956 79.6348 147.04 80.0081 147.04C80.4001 147.04 80.7688 146.956 81.1141 146.788C81.4595 146.611 81.7628 146.368 82.0241 146.06C82.2855 145.752 82.4815 145.402 82.6121 145.01C82.4815 144.609 82.2855 144.254 82.0241 143.946C81.7628 143.638 81.4595 143.395 81.1141 143.218C80.7688 143.041 80.4001 142.952 80.0081 142.952C79.6348 142.952 79.3035 143.041 79.0141 143.218C78.7248 143.395 78.4961 143.638 78.3281 143.946C78.1695 144.254 78.0901 144.609 78.0901 145.01ZM87.0945 141.006L89.9505 141.006V149H87.0945V141.006ZM93.7305 141.006H96.5865V149H93.7305V141.006ZM88.7465 143.848L94.8085 143.848V145.976L88.7465 145.976V143.848ZM98.1551 141.006H101.011V149H98.1551V141.006ZM104.791 141.006H107.647V149H104.791V141.006ZM99.8071 143.848H105.869V145.976H99.8071V143.848ZM118.708 141.006H121.578V149H118.708V141.006ZM109.216 149V141.006H112.072V148.3L111.19 146.998H114.018C114.372 146.998 114.648 146.914 114.844 146.746C115.04 146.569 115.138 146.326 115.138 146.018C115.138 145.701 115.04 145.458 114.844 145.29C114.648 145.113 114.372 145.024 114.018 145.024H111.176V143.092H114.494C115.203 143.092 115.819 143.218 116.342 143.47C116.864 143.713 117.27 144.058 117.56 144.506C117.858 144.945 118.008 145.458 118.008 146.046C118.008 146.643 117.863 147.166 117.574 147.614C117.284 148.053 116.878 148.393 116.356 148.636C115.833 148.879 115.226 149 114.536 149H109.216ZM127.837 149.224C126.867 149.224 125.999 149.047 125.233 148.692C124.477 148.337 123.88 147.843 123.441 147.208C123.003 146.564 122.783 145.817 122.783 144.968C122.783 144.137 122.993 143.409 123.413 142.784C123.833 142.149 124.407 141.655 125.135 141.3C125.873 140.945 126.703 140.768 127.627 140.768C128.589 140.768 129.405 140.978 130.077 141.398C130.759 141.809 131.281 142.392 131.645 143.148C132.019 143.904 132.205 144.795 132.205 145.822H125.093V144.1H130.595L129.657 144.702C129.62 144.291 129.517 143.946 129.349 143.666C129.181 143.377 128.957 143.157 128.677 143.008C128.407 142.859 128.08 142.784 127.697 142.784C127.277 142.784 126.918 142.868 126.619 143.036C126.321 143.204 126.087 143.437 125.919 143.736C125.751 144.025 125.667 144.366 125.667 144.758C125.667 145.262 125.779 145.691 126.003 146.046C126.237 146.391 126.573 146.657 127.011 146.844C127.459 147.031 128.005 147.124 128.649 147.124C129.237 147.124 129.821 147.049 130.399 146.9C130.987 146.741 131.519 146.522 131.995 146.242V148.062C131.445 148.435 130.815 148.725 130.105 148.93C129.405 149.126 128.649 149.224 127.837 149.224Z" fill="#2F33F9"></path>
<rect x="153" y="128" width="113" height="32" rx="16" fill="#2F33F9"></rect>
<path d="M169.278 151.114V146.438H171.546L172.47 146.466H179.75L180.478 146.438H183.53V151.114H180.814V149H171.994V151.114H169.278ZM171.462 138.5H181.724V148.188H178.812V139.718L180.128 141.034H173.002L174.206 140.068C174.28 140.497 174.322 140.913 174.332 141.314C174.35 141.715 174.36 142.098 174.36 142.462C174.36 143.554 174.262 144.473 174.066 145.22C173.879 145.967 173.594 146.531 173.212 146.914C172.838 147.297 172.367 147.488 171.798 147.488L170.58 146.48C170.953 146.041 171.228 145.444 171.406 144.688C171.583 143.923 171.672 142.98 171.672 141.86C171.672 141.347 171.653 140.81 171.616 140.25C171.578 139.69 171.527 139.107 171.462 138.5ZM191.772 149L191.408 146.116L191.786 145.01L191.408 143.904L191.772 141.006H194.74L194.236 144.996L194.74 149H191.772ZM192.444 145.01C192.35 145.598 192.084 146.251 191.646 146.97C191.132 147.791 190.652 148.347 190.204 148.636C189.606 149.028 188.93 149.224 188.174 149.224C187.39 149.224 186.699 149.051 186.102 148.706C185.514 148.351 185.052 147.857 184.716 147.222C184.38 146.578 184.212 145.841 184.212 145.01C184.212 144.161 184.38 143.419 184.716 142.784C185.052 142.149 185.514 141.655 186.102 141.3C186.699 140.945 187.39 140.768 188.174 140.768C188.902 140.768 189.583 140.964 190.218 141.356C190.74 141.673 191.24 142.219 191.716 142.994C192.098 143.601 192.341 144.273 192.444 145.01ZM187.11 145.01C187.11 145.402 187.189 145.752 187.348 146.06C187.516 146.368 187.744 146.611 188.034 146.788C188.323 146.956 188.654 147.04 189.028 147.04C189.42 147.04 189.788 146.956 190.134 146.788C190.479 146.611 190.782 146.368 191.044 146.06C191.305 145.752 191.501 145.402 191.632 145.01C191.501 144.609 191.305 144.254 191.044 143.946C190.782 143.638 190.479 143.395 190.134 143.218C189.788 143.041 189.42 142.952 189.028 142.952C188.654 142.952 188.323 143.041 188.034 143.218C187.744 143.395 187.516 143.638 187.348 143.946C187.189 144.254 187.11 144.609 187.11 145.01ZM198.564 141.986H201.434V149H198.564V141.986ZM195.526 141.006H204.472V143.162H195.526V141.006ZM212.43 149L212.066 146.116L212.444 145.01L212.066 143.904L212.43 141.006H215.398L214.894 144.996L215.398 149H212.43ZM213.102 145.01C213.009 145.598 212.743 146.251 212.304 146.97C211.791 147.791 211.31 148.347 210.862 148.636C210.265 149.028 209.588 149.224 208.832 149.224C208.048 149.224 207.357 149.051 206.76 148.706C206.172 148.351 205.71 147.857 205.374 147.222C205.038 146.578 204.87 145.841 204.87 145.01C204.87 144.161 205.038 143.419 205.374 142.784C205.71 142.149 206.172 141.655 206.76 141.3C207.357 140.945 208.048 140.768 208.832 140.768C209.56 140.768 210.241 140.964 210.876 141.356C211.399 141.673 211.898 142.219 212.374 142.994C212.757 143.601 212.999 144.273 213.102 145.01ZM207.768 145.01C207.768 145.402 207.847 145.752 208.006 146.06C208.174 146.368 208.403 146.611 208.692 146.788C208.981 146.956 209.313 147.04 209.686 147.04C210.078 147.04 210.447 146.956 210.792 146.788C211.137 146.611 211.441 146.368 211.702 146.06C211.963 145.752 212.159 145.402 212.29 145.01C212.159 144.609 211.963 144.254 211.702 143.946C211.441 143.638 211.137 143.395 210.792 143.218C210.447 143.041 210.078 142.952 209.686 142.952C209.313 142.952 208.981 143.041 208.692 143.218C208.403 143.395 208.174 143.638 208.006 143.946C207.847 144.254 207.768 144.609 207.768 145.01Z" fill="white"></path>
<path d="M244.707 141.707C245.098 141.316 245.098 140.683 244.707 140.293C244.317 139.902 243.684 139.902 243.293 140.293L238 145.586L232.707 140.293L232.631 140.224C232.238 139.904 231.659 139.927 231.293 140.293C230.927 140.659 230.904 141.238 231.225 141.631L231.293 141.707L237.293 147.707C237.684 148.097 238.317 148.097 238.707 147.707L244.707 141.707Z" fill="white"></path>
<rect x="274" y="128" width="140" height="32" rx="16" fill="#F0F0FF"></rect>
<path d="M290.752 139.774H293.664V149H290.752V139.774ZM286.748 138.5H297.668V141.076H286.748V138.5ZM297.889 149V141.006H300.717V147.446L300.101 147.25L304.287 141.006H307.955V149H305.141V142.378L305.757 142.588L301.459 149H297.889ZM318.974 141.006V149H316.104V141.832L317.42 143.134H311.092L312.408 141.832V149H309.538V141.006H318.974ZM333.55 145.626C333.476 146.345 333.214 146.975 332.766 147.516C332.318 148.057 331.735 148.477 331.016 148.776C330.307 149.075 329.509 149.224 328.622 149.224C327.642 149.224 326.779 149.047 326.032 148.692C325.286 148.337 324.702 147.843 324.282 147.208C323.862 146.573 323.652 145.841 323.652 145.01C323.652 144.17 323.862 143.433 324.282 142.798C324.702 142.163 325.286 141.669 326.032 141.314C326.779 140.95 327.642 140.768 328.622 140.768C329.509 140.768 330.307 140.922 331.016 141.23C331.735 141.529 332.318 141.949 332.766 142.49C333.214 143.022 333.476 143.652 333.55 144.38H330.708C330.606 143.904 330.368 143.54 329.994 143.288C329.621 143.027 329.164 142.896 328.622 142.896C328.202 142.896 327.834 142.98 327.516 143.148C327.208 143.307 326.966 143.545 326.788 143.862C326.62 144.17 326.536 144.553 326.536 145.01C326.536 145.458 326.62 145.841 326.788 146.158C326.966 146.466 327.208 146.704 327.516 146.872C327.834 147.031 328.202 147.11 328.622 147.11C329.164 147.11 329.621 146.975 329.994 146.704C330.377 146.433 330.615 146.074 330.708 145.626H333.55ZM339.44 149.224C338.414 149.224 337.518 149.051 336.752 148.706C335.987 148.351 335.39 147.857 334.96 147.222C334.531 146.578 334.316 145.841 334.316 145.01C334.316 144.161 334.531 143.419 334.96 142.784C335.39 142.149 335.987 141.655 336.752 141.3C337.518 140.945 338.414 140.768 339.44 140.768C340.458 140.768 341.349 140.945 342.114 141.3C342.889 141.655 343.491 142.149 343.92 142.784C344.35 143.419 344.564 144.161 344.564 145.01C344.564 145.841 344.35 146.578 343.92 147.222C343.491 147.857 342.889 148.351 342.114 148.706C341.349 149.051 340.458 149.224 339.44 149.224ZM339.44 147.11C339.907 147.11 340.304 147.026 340.63 146.858C340.966 146.69 341.223 146.447 341.4 146.13C341.578 145.813 341.666 145.439 341.666 145.01C341.666 144.562 341.578 144.184 341.4 143.876C341.223 143.559 340.966 143.316 340.63 143.148C340.304 142.98 339.907 142.896 339.44 142.896C338.974 142.896 338.572 142.98 338.236 143.148C337.9 143.316 337.644 143.559 337.466 143.876C337.289 144.184 337.2 144.557 337.2 144.996C337.2 145.435 337.289 145.813 337.466 146.13C337.644 146.447 337.9 146.69 338.236 146.858C338.572 147.026 338.974 147.11 339.44 147.11ZM350.85 149.224C349.721 149.224 348.755 149.019 347.952 148.608C347.159 148.188 346.548 147.586 346.118 146.802C345.698 146.009 345.488 145.057 345.488 143.946C345.488 142.294 345.946 140.992 346.86 140.04C347.784 139.06 349.091 138.505 350.78 138.374C351.48 138.318 352.059 138.271 352.516 138.234C352.974 138.187 353.347 138.145 353.636 138.108C353.935 138.061 354.178 137.968 354.364 137.828C354.551 137.688 354.742 137.585 354.938 137.52L354.994 139.802C354.77 139.886 354.504 140.012 354.196 140.18C353.898 140.339 353.515 140.437 353.048 140.474C352.591 140.511 352.017 140.544 351.326 140.572C350.132 140.619 349.254 140.922 348.694 141.482C348.144 142.033 347.868 142.835 347.868 143.89V144.184L347.784 143.974C347.952 143.507 348.223 143.106 348.596 142.77C348.97 142.434 349.422 142.177 349.954 142C350.486 141.813 351.065 141.72 351.69 141.72C352.502 141.72 353.212 141.869 353.818 142.168C354.425 142.467 354.896 142.891 355.232 143.442C355.568 143.993 355.736 144.627 355.736 145.346C355.736 146.13 355.531 146.816 355.12 147.404C354.719 147.983 354.154 148.431 353.426 148.748C352.698 149.065 351.84 149.224 350.85 149.224ZM350.92 147.11C351.312 147.11 351.653 147.04 351.942 146.9C352.232 146.76 352.456 146.559 352.614 146.298C352.773 146.037 352.852 145.738 352.852 145.402C352.852 145.047 352.773 144.744 352.614 144.492C352.456 144.24 352.232 144.044 351.942 143.904C351.653 143.764 351.312 143.694 350.92 143.694C350.37 143.694 349.87 143.839 349.422 144.128C348.984 144.408 348.657 144.8 348.442 145.304C348.573 145.845 348.862 146.284 349.31 146.62C349.768 146.947 350.304 147.11 350.92 147.11ZM366.444 141.006H369.314V149H366.444V141.006ZM356.952 149V141.006H359.808V148.3L358.926 146.998H361.754C362.109 146.998 362.384 146.914 362.58 146.746C362.776 146.569 362.874 146.326 362.874 146.018C362.874 145.701 362.776 145.458 362.58 145.29C362.384 145.113 362.109 145.024 361.754 145.024H358.912V143.092H362.23C362.939 143.092 363.555 143.218 364.078 143.47C364.601 143.713 365.007 144.058 365.296 144.506C365.595 144.945 365.744 145.458 365.744 146.046C365.744 146.643 365.599 147.166 365.31 147.614C365.021 148.053 364.615 148.393 364.092 148.636C363.569 148.879 362.963 149 362.272 149H356.952ZM373.334 141.986H376.204V149H373.334V141.986ZM370.296 141.006H379.242V143.162H370.296V141.006ZM380.222 149V141.006H383.05V147.446L382.434 147.25L386.62 141.006H390.288V149H387.474V142.378L388.09 142.588L383.792 149H380.222ZM398.66 144.618V146.396H394.838L394.81 146.312C394.185 146.312 393.629 146.205 393.144 145.99C392.668 145.775 392.295 145.472 392.024 145.08C391.763 144.679 391.632 144.217 391.632 143.694C391.632 143.153 391.763 142.681 392.024 142.28C392.295 141.879 392.668 141.566 393.144 141.342C393.629 141.118 394.185 141.006 394.81 141.006H400.732V149H397.876V141.706L398.66 142.854H395.538C395.221 142.854 394.969 142.933 394.782 143.092C394.605 143.241 394.516 143.451 394.516 143.722C394.516 144.002 394.605 144.221 394.782 144.38C394.969 144.539 395.221 144.618 395.538 144.618H398.66ZM397.218 145.262L394.628 149H391.408L394.138 145.262H397.218Z" fill="#2F33F9"></path>
<rect x="59" y="273" width="38" height="38" rx="19" stroke="#FE5C1C" stroke-width="2"></rect>
<rect x="62" y="276" width="32" height="32" rx="16" fill="#FE5C1C"></rect>
<path d="M78.502 288.34C79.7353 288.34 80.6787 288.53 81.332 288.91C81.9853 289.283 82.312 289.807 82.312 290.48C82.312 291.08 82.0287 291.533 81.462 291.84C80.8953 292.147 80.1053 292.28 79.092 292.24V292.04C80.1787 291.96 81.0253 292.08 81.632 292.4C82.2387 292.72 82.542 293.227 82.542 293.92C82.542 294.647 82.1953 295.203 81.502 295.59C80.8153 295.97 79.8153 296.16 78.502 296.16C77.1953 296.16 76.1953 295.97 75.502 295.59C74.8087 295.203 74.462 294.647 74.462 293.92C74.462 293.227 74.7653 292.72 75.372 292.4C75.9853 292.073 76.8353 291.953 77.922 292.04V292.24C76.9087 292.28 76.1153 292.147 75.542 291.84C74.9753 291.533 74.692 291.08 74.692 290.48C74.692 289.807 75.0187 289.283 75.672 288.91C76.3253 288.53 77.2687 288.34 78.502 288.34ZM78.502 294.58C79.1353 294.58 79.6153 294.51 79.942 294.37C80.2753 294.223 80.442 294.013 80.442 293.74C80.442 293.46 80.2753 293.25 79.942 293.11C79.6153 292.97 79.1353 292.9 78.502 292.9C77.8687 292.9 77.3853 292.97 77.052 293.11C76.7253 293.25 76.562 293.46 76.562 293.74C76.562 294.013 76.7253 294.223 77.052 294.37C77.3853 294.51 77.8687 294.58 78.502 294.58ZM78.502 291.47C78.882 291.47 79.1987 291.443 79.452 291.39C79.712 291.33 79.9087 291.243 80.042 291.13C80.182 291.01 80.252 290.863 80.252 290.69C80.252 290.443 80.102 290.253 79.802 290.12C79.502 289.987 79.0687 289.92 78.502 289.92C77.942 289.92 77.512 289.987 77.212 290.12C76.912 290.253 76.762 290.443 76.762 290.69C76.762 290.863 76.8287 291.01 76.962 291.13C77.0953 291.243 77.292 291.33 77.552 291.39C77.812 291.443 78.1287 291.47 78.502 291.47Z" fill="white"></path>
<rect x="35" y="407" width="38" height="38" rx="19" stroke="#FE5C1C" stroke-width="2"></rect>
<rect x="38" y="410" width="32" height="32" rx="16" fill="#FE5C1C"></rect>
<path d="M50.7757 424.92C50.8157 424.447 50.9857 424.017 51.2857 423.63C51.5857 423.237 52.019 422.923 52.5857 422.69C53.1523 422.457 53.8423 422.34 54.6557 422.34C55.349 422.34 55.9523 422.427 56.4657 422.6C56.9857 422.773 57.3857 423.017 57.6657 423.33C57.9523 423.643 58.0957 424.013 58.0957 424.44C58.0957 424.773 57.9923 425.08 57.7857 425.36C57.5857 425.64 57.2657 425.863 56.8257 426.03C56.3923 426.19 55.8257 426.267 55.1257 426.26V426.05C55.779 426.023 56.339 426.07 56.8057 426.19C57.2723 426.31 57.629 426.507 57.8757 426.78C58.129 427.053 58.2557 427.4 58.2557 427.82C58.2557 428.273 58.109 428.677 57.8157 429.03C57.5223 429.383 57.0957 429.66 56.5357 429.86C55.9823 430.06 55.3023 430.16 54.4957 430.16C53.7157 430.16 53.0357 430.053 52.4557 429.84C51.8757 429.627 51.4223 429.323 51.0957 428.93C50.7757 428.53 50.6057 428.063 50.5857 427.53H52.6457C52.699 427.863 52.8723 428.12 53.1657 428.3C53.4657 428.48 53.909 428.57 54.4957 428.57C55.029 428.57 55.4357 428.49 55.7157 428.33C56.0023 428.17 56.1457 427.947 56.1457 427.66C56.1457 427.493 56.099 427.353 56.0057 427.24C55.919 427.127 55.7623 427.043 55.5357 426.99C55.309 426.93 54.9923 426.9 54.5857 426.9H53.2957V425.5H54.5857C55.1123 425.5 55.479 425.43 55.6857 425.29C55.899 425.15 56.0057 424.963 56.0057 424.73C56.0057 424.477 55.8823 424.28 55.6357 424.14C55.3957 424 55.0323 423.93 54.5457 423.93C54.0257 423.93 53.6257 424.017 53.3457 424.19C53.0657 424.363 52.899 424.607 52.8457 424.92H50.7757Z" fill="white"></path>
<rect x="249" y="661" width="38" height="38" rx="19" stroke="#FE5C1C" stroke-width="2"></rect>
<rect x="252" y="664" width="32" height="32" rx="16" fill="#FE5C1C"></rect>
<path d="M264.665 679.2C264.705 678.613 264.899 678.107 265.245 677.68C265.592 677.247 266.052 676.917 266.625 676.69C267.205 676.457 267.859 676.34 268.585 676.34C269.279 676.34 269.882 676.447 270.395 676.66C270.915 676.867 271.319 677.157 271.605 677.53C271.892 677.903 272.035 678.337 272.035 678.83C272.035 679.21 271.932 679.567 271.725 679.9C271.519 680.227 271.195 680.55 270.755 680.87C270.315 681.183 269.739 681.513 269.025 681.86L266.965 682.89L266.885 682.36H272.245V684H264.825V682.56L268.045 680.75C268.545 680.463 268.932 680.223 269.205 680.03C269.485 679.83 269.682 679.647 269.795 679.48C269.915 679.313 269.975 679.137 269.975 678.95C269.975 678.743 269.919 678.567 269.805 678.42C269.699 678.267 269.535 678.147 269.315 678.06C269.095 677.973 268.825 677.93 268.505 677.93C268.105 677.93 267.779 677.99 267.525 678.11C267.272 678.223 267.082 678.377 266.955 678.57C266.829 678.757 266.752 678.967 266.725 679.2H264.665Z" fill="white"></path>
</g>
<defs>
<pattern id="pattern0_231_2524" patternContentUnits="objectBoundingBox" width="1" height="1">
<use xlink:href="#image0_231_2524" transform="matrix(0.0014886 0 0 0.000679348 -0.589655 0)"></use>
</pattern>
<clipPath id="bgblur_1_231_2524_clip_path" transform="translate(-301 -439)"><rect x="305" y="443" width="62" height="52" rx="26"></rect>
</clipPath><clipPath id="bgblur_2_231_2524_clip_path" transform="translate(-309 -313)"><rect x="313" y="317" width="48" height="48" rx="18"></rect>
</clipPath><clipPath id="bgblur_3_231_2524_clip_path" transform="translate(-309 -371)"><rect x="313" y="375" width="48" height="48" rx="18"></rect>
</clipPath><clipPath id="bgblur_4_231_2524_clip_path" transform="translate(-4 -718)"><rect x="8" y="722" width="360" height="62" rx="31"></rect>
</clipPath><clipPath id="clip0_231_2524">
<rect width="375" height="812" fill="white"></rect>
</clipPath>
<image id="image0_231_2524" width="1464" height="1472" preserveAspectRatio="none"></image>
</defs>
</svg>